<?xml version="1.0" encoding="UTF-8"?>
<svg id="Layer_2" data-name="Layer 2" xmlns="http://www.w3.org/2000/svg" xmlns:xlink="http://www.w3.org/1999/xlink" viewBox="0 0 2048 2048">
  <defs>
    
    <linearGradient id="linear-gradient" x1="1084.5" y1="-31.35" x2="1492.59" y2="2084.65" gradientUnits="userSpaceOnUse">
      <stop offset="0" stop-color="#ef404e"></stop>
      <stop offset=".36" stop-color="#ee3d4e"></stop>
      <stop offset=".51" stop-color="#ec3651"></stop>
      <stop offset=".63" stop-color="#e82a55"></stop>
      <stop offset=".73" stop-color="#e4185a"></stop>
      <stop offset=".73" stop-color="#e4185b"></stop>
      <stop offset=".79" stop-color="#e82459"></stop>
      <stop offset=".88" stop-color="#ec2d57"></stop>
      <stop offset="1" stop-color="#ee3157"></stop>
    </linearGradient>
    <linearGradient id="linear-gradient-2" x1="905.25" y1="3.22" x2="1313.34" y2="2119.22" gradientUnits="userSpaceOnUse">
      <stop offset="0" stop-color="#ef404e"></stop>
      <stop offset=".33" stop-color="#ee3d4f"></stop>
      <stop offset=".47" stop-color="#ed3656"></stop>
      <stop offset=".58" stop-color="#eb2a62"></stop>
      <stop offset=".67" stop-color="#e71872"></stop>
      <stop offset=".73" stop-color="#e50981"></stop>
      <stop offset=".77" stop-color="#e71574"></stop>
      <stop offset=".83" stop-color="#eb2463"></stop>
      <stop offset=".91" stop-color="#ed2e5a"></stop>
      <stop offset="1" stop-color="#ee3157"></stop>
    </linearGradient>
    <linearGradient id="linear-gradient-3" x1="779.02" y1="27.56" x2="1187.11" y2="2143.57" xlink:href="#linear-gradient-2"></linearGradient>
    <linearGradient id="linear-gradient-4" x1="1213.28" y1="-56.18" x2="1621.37" y2="2059.82" xlink:href="#linear-gradient-2"></linearGradient>
    <linearGradient id="linear-gradient-5" x1="1023.21" y1="-19.53" x2="1431.29" y2="2096.48" xlink:href="#linear-gradient-2"></linearGradient>
    <linearGradient id="linear-gradient-6" x1="1028.71" y1="-20.59" x2="1436.8" y2="2095.41" xlink:href="#linear-gradient-2"></linearGradient>
    <linearGradient id="linear-gradient-7" x1="752.27" y1="32.72" x2="1160.36" y2="2148.73" xlink:href="#linear-gradient-2"></linearGradient>
    <linearGradient id="linear-gradient-8" x1="569.12" y1="712.1" x2="842.87" y2="1744.34" gradientUnits="userSpaceOnUse">
      <stop offset="0" stop-color="#00a8e4"></stop>
      <stop offset=".22" stop-color="#02a4e1"></stop>
      <stop offset=".39" stop-color="#0a9ada"></stop>
      <stop offset=".54" stop-color="#178acd"></stop>
      <stop offset=".69" stop-color="#2972bb"></stop>
      <stop offset=".8" stop-color="#3c5ba9"></stop>
      <stop offset=".84" stop-color="#385fac"></stop>
      <stop offset=".89" stop-color="#2d6db6"></stop>
      <stop offset=".94" stop-color="#1c83c8"></stop>
      <stop offset=".99" stop-color="#03a3e0"></stop>
      <stop offset="1" stop-color="#00a8e4"></stop>
    </linearGradient>
    <linearGradient id="linear-gradient-9" x1="341.43" y1="772.48" x2="615.17" y2="1804.72" xlink:href="#linear-gradient-8"></linearGradient>
    <linearGradient id="linear-gradient-10" x1="526.2" y1="723.48" x2="799.94" y2="1755.72" xlink:href="#linear-gradient-8"></linearGradient>
    <linearGradient id="linear-gradient-11" x1="510.62" y1="727.61" x2="784.36" y2="1759.85" xlink:href="#linear-gradient-8"></linearGradient>
    <linearGradient id="linear-gradient-12" x1="600.61" y1="703.75" x2="874.35" y2="1735.99" xlink:href="#linear-gradient-8"></linearGradient>
    <linearGradient id="linear-gradient-13" x1="555.91" y1="715.6" x2="829.65" y2="1747.84" xlink:href="#linear-gradient-8"></linearGradient>
    <linearGradient id="linear-gradient-14" x1="443.14" y1="745.51" x2="716.88" y2="1777.75" xlink:href="#linear-gradient-8"></linearGradient>
  </defs>
  <path class="cls-9" d="M1378.03,1015.44c.55.53,1.07,1.13,1.53,1.76,18.1,15.55,32.43,29.89,43.51,43.54-4.78-69.36-19.82-142.34-28.66-180.78-17.33-75.38-36.17-131.66-43.34-143.97-11.58-11.85-23.53-23.46-35.52-34.5-79.23-68.65-152.92-154.88-207.48-242.78-38.49-62.01-66.52-123.1-83.5-181.96-.48,117.96,24.71,235.9,75.01,350.95,59.83,136.85,153.51,267.31,278.44,387.75Z"></path>
  <path class="cls-8" d="M1173.72,875.64c31.43,19.82,61.47,38.75,89.89,57.37-80.4-93.63-143.7-192.67-188.31-294.7-59.71-136.57-84.98-276.76-75.2-416.93-18.5,31.19-43.29,75.67-67.33,127.19-34.93,74.85-77.77,185.78-84.04,290.05,89.19,88.39,214.43,167.34,324.98,237.02Z"></path>
  <path class="cls-7" d="M891.92,1763.91c47.55-9.1,96.97-26.93,146.9-52.98,61.42-32.05,123.89-76.77,185.71-132.93,58.03-115.75,68.43-207.24,30.92-271.92-27.49-47.41-76.77-71.92-113.26-84.13-20.22-6.77-38.9-10.63-52.6-12.81,33.49,60.58,56.99,118.12,69.88,171.1,12.34,50.7,7.21,107.29-14.81,163.67-18.85,48.24-49.52,94.83-86.36,131.17-40.72,40.18-102.12,70.97-182.59,91.61,5.37-.81,10.78-1.74,16.21-2.78Z"></path>
  <path class="cls-6" d="M1462.64,1336.7c2.6,13.52,7.65,48.44,4.04,101.87-3.3,48.83-15.24,125.61-52.81,219.31,28.89-28.83,54.93-60.8,77.55-95.25,8.8-13.38,17.22-27.36,25.02-41.56l2.98,1.47-2.88-1.64c43.04-75.65,66.27-158.17,69.05-245.28,2.01-62.89-6.64-127.61-25.73-192.6-21.47,93.18-83.3,224.71-97.22,253.69Z"></path>
  <path class="cls-3" d="M970.67,1029.47c27.67,37.69,65.42,89.11,100.33,147.42,11.86-5.6,33.7-14.82,61.93-22.01,21.18-5.39,48.26-10.1,78.16-10.1,25.42,0,52.87,3.4,80.51,12.67,65.23,21.89,118.03,71.23,157.03,146.69,9.9-21.43,26.4-58.13,42.41-98.11,33.78-84.37,50.92-146.46,49.58-179.64-32.16-83.33-81.47-165.67-143.08-239.07,7.85,26.34,15.76,56.52,22.69,86.69,12.39,53.92,32.86,156.92,30.69,240.99-.17,6.59-5.24,12.11-11.79,12.83-.49.05-.98.08-1.46.08-6.08,0-11.37-4.13-12.85-10.03-5.88-23.48-27.08-50.47-64.81-82.54-50-42.47-123.07-88.53-200.43-137.3-104.21-65.69-222.02-139.96-311.49-223.33.16,6,.46,11.87.89,17.53,9.15,120.89,57.23,247.03,97.82,304.34,6.84,9.66,14.74,20.41,23.88,32.86Z"></path>
  <path class="cls-4" d="M1436.1,1339.21c-36.7-82.14-88.1-134.82-152.77-156.57-53.87-18.12-107.64-11.21-143.26-2.22-7.88,1.99-15.77,4.3-23.58,6.9,11.43,2.58,22.66,5.7,33.52,9.31,58.78,19.56,103.15,52.77,128.29,96.06,41.79,71.94,32.49,170.27-27.65,292.3,12.76,17.35,53.88,68.37,120.15,105.72,50.28-108.38,65.48-197.2,69.35-252.84,3.93-56.51-2.53-91.39-4.06-98.65Z"></path>
  <path class="cls-2" d="M1233.15,1605.89c-60.49,53.82-121.73,97.06-182.07,128.54-52.22,27.25-104.09,45.92-154.18,55.51-26.07,4.99-51.49,7.52-75.58,7.52-1.88.02-3.73-.02-5.6-.05,41.51,18.85,75.61,21.5,132.85,25.95l.34.03c5.86.46,11.93.93,18.25,1.44h.16c71.03,5.75,142.07-2.32,211.1-23.98,62.83-19.72,121.47-49.96,174.38-89.9-62.96-36.64-103.26-83.57-119.65-105.05Z"></path>
  <path class="cls-1" d="M580.95,1369.8c11.56,12.32,34.01,34.07,67.37,57.08,40.21,27.74,106.54,63.97,196.44,81.32-20.28-31.04-30.34-70.52-29.91-117.48.48-52.43,13.61-107.85,26.4-155.16,4.9-25.8,7.69-52.38,8.3-79.11l-268.6,213.35Z"></path>
  <path class="cls-5" d="M544.72,1373.77c-10.4-6.66-24.93-18.25-39.23-37.18-12.61-16.69-28.7-44.53-38.41-86.13-8.89,72.96-5.81,137.35,9.35,196.31,10.47,40.72,26.39,77.69,48.52,112.58-6.26-52.39-6.65-122.7,19.77-185.57Z"></path>
  <path class="cls-10" d="M591.99,1416.91c25.63,48.45,73.75,91.49,111.34,120.1,48.97,37.28,96.73,63.38,112.94,71.86,23.73-19.36,35.35-45.38,43.99-71.07-104.69-16.32-181.51-57.63-227.71-89.61-14.34-9.93-27.93-20.41-40.56-31.29Z"></path>
  <path class="cls-11" d="M526.14,1319.95c12.02,16.1,24.22,25.75,31.72,30.74,11.49-16.97,37.14-57.72,62.69-117.7,33.6-78.89,55.31-162.54,64.53-248.63,8.67-81.02,5.57-154.16-9.24-217.37-5.34-22.79-12.23-44.21-20.55-63.87-8.45,122.82-54.25,213.69-98.6,301.67-10.62,21.08-21.61,42.87-31.87,64.73v.63l-.56.56c-17.21,36.75-29.74,68.16-39.4,98.75.05,43.62,7.28,104.95,41.29,150.49Z"></path>
  <path class="cls-12" d="M702.88,766.43c14.41,64.84,17.28,139.08,8.54,220.77-15.83,147.82-65.75,261.8-98.97,323.75l236.71-188.02c-2.28-51.33-12.49-102.03-29.54-146.75-32.08-69.99-74.71-140.86-116.74-209.73Z"></path>
  <path class="cls-13" d="M998.19,1589.81c-.76.01-1.52.02-2.27.02-36.27,0-70.06-10.77-97.75-31.16-4.77-2.84-9.43-5.92-13.92-9.19-18.05,51.45-40.38,72.5-57.97,85.1-.16.11-.3.21-.45.31-22.72,14.92-57.1,22.49-102.17,22.49-8.42,0-17.22-.28-26.17-.82-33.46-2.03-71.03-8.03-107.02-17.03,20.01,19.67,42.53,38.74,68.54,58.03h0c.19.15.38.3.56.45,14.61,12.12,18.36,14.95,33.46,25.21.66.45,1.28.96,1.85,1.52,27.99,2.97,118.9,8.89,197.36-27.07,56.59-25.93,91.49-80.77,105.94-107.85Z"></path>
  <path class="cls-14" d="M787.22,1623.28c-4.85-2.71-9.77-5.52-14.69-8.4-20.75-12.13-52.24-31.72-84.41-56.14-65.52-49.73-108.64-99.46-128.33-147.97-23.24,81.09-5.53,170.43-.53,192.29,93.37,30.34,182.77,33.09,227.97,20.22Z"></path>
</svg>