<?xml version="1.0" encoding="UTF-8"?>
<svg id="Layer_2" data-name="Layer 2" xmlns="http://www.w3.org/2000/svg" xmlns:xlink="http://www.w3.org/1999/xlink" viewBox="0 0 255 255">
  <defs>
    <style>
      .cls-1 {
        fill: url(#linear-gradient-8);
      }

      .cls-2 {
        fill: url(#linear-gradient-7);
      }

      .cls-3 {
        fill: url(#linear-gradient-5);
      }

      .cls-4 {
        fill: url(#linear-gradient-6);
      }

      .cls-5 {
        fill: url(#linear-gradient-9);
      }

      .cls-6 {
        fill: url(#linear-gradient-4);
      }

      .cls-7 {
        fill: url(#linear-gradient-3);
      }

      .cls-8 {
        fill: url(#linear-gradient-2);
      }

      .cls-9 {
        fill: url(#linear-gradient);
      }

      .cls-10 {
        fill: url(#linear-gradient-10);
      }

      .cls-11 {
        fill: url(#linear-gradient-11);
      }

      .cls-12 {
        fill: url(#linear-gradient-12);
      }

      .cls-13 {
        fill: url(#linear-gradient-13);
      }

      .cls-14 {
        fill: url(#linear-gradient-14);
      }
    </style>
    <linearGradient id="linear-gradient" x1="135.59" y1="-13.67" x2="190.18" y2="269.38" gradientUnits="userSpaceOnUse">
      <stop offset="0" stop-color="#ef404e"/>
      <stop offset=".36" stop-color="#ee3d4e"/>
      <stop offset=".51" stop-color="#ec3651"/>
      <stop offset=".63" stop-color="#e82a55"/>
      <stop offset=".73" stop-color="#e4185a"/>
      <stop offset=".73" stop-color="#e4185b"/>
      <stop offset=".79" stop-color="#e82459"/>
      <stop offset=".88" stop-color="#ec2d57"/>
      <stop offset="1" stop-color="#ee3157"/>
    </linearGradient>
    <linearGradient id="linear-gradient-2" x1="111.62" y1="-9.05" x2="166.2" y2="274" gradientUnits="userSpaceOnUse">
      <stop offset="0" stop-color="#ef404e"/>
      <stop offset=".33" stop-color="#ee3d4f"/>
      <stop offset=".47" stop-color="#ed3656"/>
      <stop offset=".58" stop-color="#eb2a62"/>
      <stop offset=".67" stop-color="#e71872"/>
      <stop offset=".73" stop-color="#e50981"/>
      <stop offset=".77" stop-color="#e71574"/>
      <stop offset=".83" stop-color="#eb2463"/>
      <stop offset=".91" stop-color="#ed2e5a"/>
      <stop offset="1" stop-color="#ee3157"/>
    </linearGradient>
    <linearGradient id="linear-gradient-3" x1="94.73" y1="-5.79" x2="149.32" y2="277.26" xlink:href="#linear-gradient-2"/>
    <linearGradient id="linear-gradient-4" x1="152.82" y1="-16.99" x2="207.41" y2="266.06" xlink:href="#linear-gradient-2"/>
    <linearGradient id="linear-gradient-5" x1="127.39" y1="-12.09" x2="181.98" y2="270.96" xlink:href="#linear-gradient-2"/>
    <linearGradient id="linear-gradient-6" x1="128.13" y1="-12.23" x2="182.72" y2="270.82" xlink:href="#linear-gradient-2"/>
    <linearGradient id="linear-gradient-7" x1="91.15" y1="-5.1" x2="145.74" y2="277.95" xlink:href="#linear-gradient-2"/>
    <linearGradient id="linear-gradient-8" x1="66.65" y1="85.78" x2="103.27" y2="223.86" gradientUnits="userSpaceOnUse">
      <stop offset="0" stop-color="#00a8e4"/>
      <stop offset=".22" stop-color="#02a4e1"/>
      <stop offset=".39" stop-color="#0a9ada"/>
      <stop offset=".54" stop-color="#178acd"/>
      <stop offset=".69" stop-color="#2972bb"/>
      <stop offset=".8" stop-color="#3c5ba9"/>
      <stop offset=".84" stop-color="#385fac"/>
      <stop offset=".89" stop-color="#2d6db6"/>
      <stop offset=".94" stop-color="#1c83c8"/>
      <stop offset=".99" stop-color="#03a3e0"/>
      <stop offset="1" stop-color="#00a8e4"/>
    </linearGradient>
    <linearGradient id="linear-gradient-9" x1="36.2" y1="93.86" x2="72.81" y2="231.93" xlink:href="#linear-gradient-8"/>
    <linearGradient id="linear-gradient-10" x1="60.91" y1="87.3" x2="97.53" y2="225.38" xlink:href="#linear-gradient-8"/>
    <linearGradient id="linear-gradient-11" x1="58.83" y1="87.85" x2="95.44" y2="225.93" xlink:href="#linear-gradient-8"/>
    <linearGradient id="linear-gradient-12" x1="70.86" y1="84.66" x2="107.48" y2="222.74" xlink:href="#linear-gradient-8"/>
    <linearGradient id="linear-gradient-13" x1="64.89" y1="86.25" x2="101.5" y2="224.33" xlink:href="#linear-gradient-8"/>
    <linearGradient id="linear-gradient-14" x1="49.8" y1="90.25" x2="86.42" y2="228.33" xlink:href="#linear-gradient-8"/>
  </defs>
  <path class="cls-9" d="M174.86,126.35c.07.07.14.15.2.24,2.42,2.08,4.34,4,5.82,5.82-.64-9.28-2.65-19.04-3.83-24.18-2.32-10.08-4.84-17.61-5.8-19.26-1.55-1.59-3.15-3.14-4.75-4.62-10.6-9.18-20.45-20.72-27.75-32.48-5.15-8.29-8.9-16.47-11.17-24.34-.06,15.78,3.31,31.56,10.03,46.94,8,18.31,20.53,35.76,37.25,51.87Z"/>
  <path class="cls-8" d="M147.53,107.65c4.2,2.65,8.22,5.18,12.02,7.67-10.76-12.52-19.22-25.77-25.19-39.42-7.99-18.27-11.37-37.02-10.06-55.77-2.47,4.17-5.79,10.12-9.01,17.01-4.67,10.01-10.4,24.85-11.24,38.8,11.93,11.82,28.68,22.38,43.47,31.71Z"/>
  <path class="cls-7" d="M109.83,226.47c6.36-1.22,12.97-3.6,19.65-7.09,8.22-4.29,16.57-10.27,24.84-17.78,7.76-15.48,9.15-27.72,4.14-36.37-3.68-6.34-10.27-9.62-15.15-11.25-2.7-.91-5.2-1.42-7.04-1.71,4.48,8.1,7.62,15.8,9.35,22.89,1.65,6.78.96,14.35-1.98,21.89-2.52,6.45-6.62,12.68-11.55,17.55-5.45,5.37-13.66,9.49-24.42,12.25.72-.11,1.44-.23,2.17-.37Z"/>
  <path class="cls-6" d="M186.17,169.33c.35,1.81,1.02,6.48.54,13.63-.44,6.53-2.04,16.8-7.06,29.34,3.86-3.86,7.35-8.13,10.37-12.74,1.18-1.79,2.3-3.66,3.35-5.56l.4.2-.39-.22c5.76-10.12,8.86-21.16,9.24-32.81.27-8.41-.89-17.07-3.44-25.76-2.87,12.46-11.14,30.06-13,33.94Z"/>
  <path class="cls-3" d="M120.37,128.23c3.7,5.04,8.75,11.92,13.42,19.72,1.59-.75,4.51-1.98,8.28-2.94,2.83-.72,6.46-1.35,10.46-1.35,3.4,0,7.07.45,10.77,1.7,8.73,2.93,15.79,9.53,21,19.62,1.32-2.87,3.53-7.78,5.67-13.12,4.52-11.29,6.81-19.59,6.63-24.03-4.3-11.15-10.9-22.16-19.14-31.98,1.05,3.52,2.11,7.56,3.04,11.6,1.66,7.21,4.39,20.99,4.1,32.24-.02.88-.7,1.62-1.58,1.72-.06,0-.13.01-.2.01-.81,0-1.52-.55-1.72-1.34-.79-3.14-3.62-6.75-8.67-11.04-6.69-5.68-16.46-11.84-26.81-18.37-13.94-8.79-29.7-18.72-41.67-29.87.02.8.06,1.59.12,2.35,1.22,16.17,7.66,33.04,13.08,40.71.91,1.29,1.97,2.73,3.19,4.4Z"/>
  <path class="cls-4" d="M182.63,169.66c-4.91-10.99-11.78-18.03-20.44-20.94-7.21-2.42-14.4-1.5-19.16-.3-1.05.27-2.11.58-3.15.92,1.53.35,3.03.76,4.48,1.25,7.86,2.62,13.8,7.06,17.16,12.85,5.59,9.62,4.35,22.78-3.7,39.1,1.71,2.32,7.21,9.15,16.07,14.14,6.73-14.5,8.76-26.38,9.28-33.82.53-7.56-.34-12.23-.54-13.2Z"/>
  <path class="cls-2" d="M155.48,205.34c-8.09,7.2-16.28,12.98-24.35,17.19-6.99,3.64-13.92,6.14-20.62,7.43-3.49.67-6.89,1.01-10.11,1.01-.25,0-.5,0-.75,0,5.55,2.52,10.11,2.88,17.77,3.47h.05c.78.06,1.6.13,2.44.2h.02c9.5.77,19-.31,28.24-3.21,8.4-2.64,16.25-6.68,23.33-12.03-8.42-4.9-13.81-11.18-16.01-14.05Z"/>
  <path class="cls-1" d="M68.24,173.76c1.55,1.65,4.55,4.56,9.01,7.64,5.38,3.71,14.25,8.56,26.28,10.88-2.71-4.15-4.06-9.43-4-15.72.06-7.01,1.82-14.43,3.53-20.76.66-3.45,1.03-7.01,1.11-10.58l-35.93,28.54Z"/>
  <path class="cls-5" d="M63.39,174.29c-1.39-.89-3.34-2.44-5.25-4.97-1.69-2.23-3.84-5.96-5.14-11.52-1.19,9.76-.78,18.37,1.25,26.26,1.4,5.45,3.53,10.39,6.49,15.06-.84-7.01-.89-16.41,2.64-24.82Z"/>
  <path class="cls-10" d="M69.71,180.06c3.43,6.48,9.86,12.24,14.89,16.07,6.55,4.99,12.94,8.48,15.11,9.61,3.17-2.59,4.73-6.07,5.88-9.51-14-2.18-24.28-7.71-30.46-11.99-1.92-1.33-3.74-2.73-5.43-4.19Z"/>
  <path class="cls-11" d="M60.9,167.09c1.61,2.15,3.24,3.44,4.24,4.11,1.54-2.27,4.97-7.72,8.39-15.74,4.49-10.55,7.4-21.74,8.63-33.26,1.16-10.84.74-20.62-1.24-29.08-.71-3.05-1.64-5.91-2.75-8.54-1.13,16.43-7.26,28.58-13.19,40.35-1.42,2.82-2.89,5.73-4.26,8.66v.08l-.07.08c-2.3,4.92-3.98,9.12-5.27,13.21,0,5.84.97,14.04,5.52,20.13Z"/>
  <path class="cls-12" d="M84.55,93.05c1.93,8.67,2.31,18.6,1.14,29.53-2.12,19.77-8.8,35.02-13.24,43.31l31.66-25.15c-.31-6.87-1.67-13.65-3.95-19.63-4.29-9.36-9.99-18.84-15.62-28.06Z"/>
  <path class="cls-13" d="M124.05,203.19c-.1,0-.2,0-.3,0-4.85,0-9.37-1.44-13.07-4.17-.64-.38-1.26-.79-1.86-1.23-2.41,6.88-5.4,9.7-7.75,11.38-.02.02-.04.03-.06.04-3.04,2-7.64,3.01-13.67,3.01-1.13,0-2.3-.04-3.5-.11-4.48-.27-9.5-1.07-14.32-2.28,2.68,2.63,5.69,5.18,9.17,7.76h0s.05.04.07.06c1.95,1.62,2.46,2,4.48,3.37.09.06.17.13.25.2,3.74.4,15.91,1.19,26.4-3.62,7.57-3.47,12.24-10.8,14.17-14.43Z"/>
  <path class="cls-14" d="M95.83,207.66c-.65-.36-1.31-.74-1.97-1.12-2.78-1.62-6.99-4.24-11.29-7.51-8.76-6.65-14.53-13.3-17.17-19.79-3.11,10.85-.74,22.8-.07,25.72,12.49,4.06,24.45,4.43,30.49,2.71Z"/>
</svg>