<?xml version="1.0"?>
<svg id="Layer_2" data-name="Layer 2" xmlns="http://www.w3.org/2000/svg" xmlns:xlink="http://www.w3.org/1999/xlink" viewBox="0 0 1145.85 620.58">
  <defs>
    
    <linearGradient id="linear-gradient" x1="145.03" y1="151.6" x2="206.39" y2="469.77" gradientUnits="userSpaceOnUse">
      <stop offset="0" stop-color="#ef404e"></stop>
      <stop offset=".36" stop-color="#ee3d4e"></stop>
      <stop offset=".51" stop-color="#ec3651"></stop>
      <stop offset=".63" stop-color="#e82a55"></stop>
      <stop offset=".73" stop-color="#e4185a"></stop>
      <stop offset=".73" stop-color="#e4185b"></stop>
      <stop offset=".79" stop-color="#e82459"></stop>
      <stop offset=".88" stop-color="#ec2d57"></stop>
      <stop offset="1" stop-color="#ee3157"></stop>
    </linearGradient>
    <linearGradient id="linear-gradient-2" x1="118.08" y1="156.8" x2="179.44" y2="474.97" gradientUnits="userSpaceOnUse">
      <stop offset="0" stop-color="#ef404e"></stop>
      <stop offset=".33" stop-color="#ee3d4f"></stop>
      <stop offset=".47" stop-color="#ed3656"></stop>
      <stop offset=".58" stop-color="#eb2a62"></stop>
      <stop offset=".67" stop-color="#e71872"></stop>
      <stop offset=".73" stop-color="#e50981"></stop>
      <stop offset=".77" stop-color="#e71574"></stop>
      <stop offset=".83" stop-color="#eb2463"></stop>
      <stop offset=".91" stop-color="#ed2e5a"></stop>
      <stop offset="1" stop-color="#ee3157"></stop>
    </linearGradient>
    <linearGradient id="linear-gradient-3" x1="99.1" y1="160.46" x2="160.46" y2="478.63" xlink:href="#linear-gradient-2"></linearGradient>
    <linearGradient id="linear-gradient-4" x1="164.4" y1="147.87" x2="225.76" y2="466.04" xlink:href="#linear-gradient-2"></linearGradient>
    <linearGradient id="linear-gradient-5" x1="135.82" y1="153.38" x2="197.18" y2="471.55" xlink:href="#linear-gradient-2"></linearGradient>
    <linearGradient id="linear-gradient-6" x1="136.64" y1="153.22" x2="198.01" y2="471.39" xlink:href="#linear-gradient-2"></linearGradient>
    <linearGradient id="linear-gradient-7" x1="95.08" y1="161.24" x2="156.44" y2="479.41" xlink:href="#linear-gradient-2"></linearGradient>
    <linearGradient id="linear-gradient-8" x1="67.54" y1="263.39" x2="108.7" y2="418.6" gradientUnits="userSpaceOnUse">
      <stop offset="0" stop-color="#00a8e4"></stop>
      <stop offset=".22" stop-color="#02a4e1"></stop>
      <stop offset=".39" stop-color="#0a9ada"></stop>
      <stop offset=".54" stop-color="#178acd"></stop>
      <stop offset=".69" stop-color="#2972bb"></stop>
      <stop offset=".8" stop-color="#3c5ba9"></stop>
      <stop offset=".84" stop-color="#385fac"></stop>
      <stop offset=".89" stop-color="#2d6db6"></stop>
      <stop offset=".94" stop-color="#1c83c8"></stop>
      <stop offset=".99" stop-color="#03a3e0"></stop>
      <stop offset="1" stop-color="#00a8e4"></stop>
    </linearGradient>
    <linearGradient id="linear-gradient-9" x1="33.3" y1="272.47" x2="74.46" y2="427.68" xlink:href="#linear-gradient-8"></linearGradient>
    <linearGradient id="linear-gradient-10" x1="61.09" y1="265.1" x2="102.25" y2="420.31" xlink:href="#linear-gradient-8"></linearGradient>
    <linearGradient id="linear-gradient-11" x1="58.74" y1="265.72" x2="99.9" y2="420.93" xlink:href="#linear-gradient-8"></linearGradient>
    <linearGradient id="linear-gradient-12" x1="72.27" y1="262.13" x2="113.43" y2="417.34" xlink:href="#linear-gradient-8"></linearGradient>
    <linearGradient id="linear-gradient-13" x1="65.55" y1="263.92" x2="106.71" y2="419.13" xlink:href="#linear-gradient-8"></linearGradient>
    <linearGradient id="linear-gradient-14" x1="48.6" y1="268.41" x2="89.76" y2="423.62" xlink:href="#linear-gradient-8"></linearGradient>
  </defs>
  <g>
    <g>
      <path class="cls-9" fill="url(#linear-gradient-9)" d="M189.17,309c.08.08.16.17.23.27,2.72,2.34,4.88,4.49,6.54,6.55-.72-10.43-2.98-21.4-4.31-27.18-2.61-11.33-5.44-19.8-6.52-21.65-1.74-1.78-3.54-3.53-5.34-5.19-11.91-10.32-22.99-23.29-31.2-36.5-5.79-9.32-10-18.51-12.56-27.36-.07,17.74,3.72,35.47,11.28,52.77,9,20.58,23.08,40.19,41.87,58.3Z"></path>
      <path class="cls-8" fill="url(#linear-gradient-8)" d="M158.45,287.98c4.73,2.98,9.24,5.83,13.52,8.63-12.09-14.08-21.61-28.97-28.31-44.31-8.98-20.54-12.78-41.62-11.31-62.69-2.78,4.69-6.51,11.38-10.12,19.12-5.25,11.26-11.69,27.93-12.64,43.61,13.41,13.29,32.24,25.16,48.86,35.64Z"></path>
      <path class="cls-7" fill="url(#linear-gradient-7)" d="M116.08,421.54c7.15-1.37,14.58-4.05,22.09-7.97,9.23-4.82,18.63-11.54,27.92-19.99,8.73-17.4,10.29-31.16,4.65-40.89-4.13-7.13-11.54-10.81-17.03-12.65-3.04-1.02-5.85-1.6-7.91-1.93,5.04,9.11,8.57,17.76,10.51,25.73,1.85,7.62,1.08,16.13-2.23,24.61-2.83,7.25-7.45,14.26-12.98,19.72-6.12,6.04-15.36,10.67-27.45,13.77.81-.12,1.62-.26,2.44-.42Z"></path>
      <path class="cls-6" fill="url(#linear-gradient-6)" d="M201.89,357.31c.39,2.03,1.15,7.28.61,15.32-.5,7.34-2.29,18.89-7.94,32.98,4.34-4.33,8.26-9.14,11.66-14.32,1.32-2.01,2.59-4.11,3.76-6.25l.45.22-.43-.25c6.47-11.37,9.96-23.78,10.38-36.88.3-9.46-1-19.19-3.87-28.96-3.23,14.01-12.53,33.79-14.62,38.15Z"></path>
      <path class="cls-3" fill="url(#linear-gradient-3)" d="M127.92,311.11c4.16,5.67,9.84,13.4,15.09,22.17,1.78-.84,5.07-2.23,9.31-3.31,3.18-.81,7.26-1.52,11.75-1.52,3.82,0,7.95.51,12.11,1.91,9.81,3.29,17.75,10.71,23.61,22.06,1.49-3.22,3.97-8.74,6.38-14.75,5.08-12.69,7.66-22.02,7.45-27.01-4.84-12.53-12.25-24.91-21.51-35.95,1.18,3.96,2.37,8.5,3.41,13.04,1.86,8.11,4.94,23.59,4.61,36.24-.03.99-.79,1.82-1.77,1.93-.07,0-.15.01-.22.01-.91,0-1.71-.62-1.93-1.51-.88-3.53-4.07-7.59-9.75-12.41-7.52-6.39-18.51-13.31-30.14-20.64-15.67-9.88-33.38-21.04-46.84-33.58.02.9.07,1.78.13,2.64,1.38,18.18,8.61,37.14,14.71,45.76,1.03,1.45,2.22,3.07,3.59,4.94Z"></path>
      <path class="cls-4" fill="url(#linear-gradient-4)" d="M197.9,357.68c-5.52-12.35-13.25-20.27-22.97-23.54-8.1-2.73-16.18-1.69-21.54-.33-1.18.3-2.37.65-3.55,1.04,1.72.39,3.41.86,5.04,1.4,8.84,2.94,15.51,7.94,19.29,14.44,6.28,10.82,4.88,25.6-4.16,43.95,1.92,2.61,8.1,10.28,18.07,15.9,7.56-16.3,9.85-29.65,10.43-38.02.59-8.5-.38-13.74-.61-14.83Z"></path>
      <path class="cls-2" fill="url(#linear-gradient-2)" d="M167.38,397.78c-9.1,8.09-18.3,14.59-27.38,19.33-7.85,4.1-15.65,6.91-23.18,8.35-3.92.75-7.74,1.13-11.36,1.13-.28,0-.56,0-.84,0,6.24,2.83,11.37,3.23,19.97,3.9h.05c.88.07,1.79.14,2.74.22h.02c10.68.87,21.36-.35,31.74-3.61,9.45-2.97,18.26-7.51,26.22-13.52-9.47-5.51-15.53-12.57-17.99-15.8Z"></path>
      <path class="cls-1" fill="url(#linear-gradient)" d="M69.32,362.28c1.74,1.85,5.11,5.12,10.13,8.58,6.05,4.17,16.02,9.62,29.54,12.23-3.05-4.67-4.56-10.6-4.5-17.66.07-7.88,2.05-16.22,3.97-23.33.74-3.88,1.16-7.88,1.25-11.9l-40.39,32.08Z"></path>
      <path class="cls-5" fill="url(#linear-gradient-5)" d="M63.87,362.88c-1.56-1-3.75-2.74-5.9-5.59-1.9-2.51-4.32-6.7-5.78-12.95-1.34,10.97-.87,20.65,1.41,29.52,1.57,6.12,3.97,11.68,7.3,16.93-.94-7.88-1-18.45,2.97-27.9Z"></path>
      <path class="cls-11" fill="url(#linear-gradient-11)" d="M70.98,369.37c3.85,7.28,11.09,13.76,16.74,18.06,7.36,5.61,14.54,9.53,16.98,10.81,3.57-2.91,5.32-6.82,6.61-10.69-15.74-2.45-27.29-8.67-34.24-13.47-2.16-1.49-4.2-3.07-6.1-4.7Z"></path>
      <path class="cls-12" fill="url(#linear-gradient-12)" d="M61.08,354.79c1.81,2.42,3.64,3.87,4.77,4.62,1.73-2.55,5.58-8.68,9.43-17.7,5.05-11.86,8.32-24.44,9.7-37.38,1.3-12.18.84-23.18-1.39-32.68-.8-3.43-1.84-6.65-3.09-9.6-1.27,18.47-8.16,32.13-14.83,45.36-1.6,3.17-3.25,6.45-4.79,9.73v.09l-.08.08c-2.59,5.53-4.47,10.25-5.92,14.85,0,6.56,1.09,15.78,6.21,22.63Z"></path>
      <path class="cls-13" fill="url(#linear-gradient-13)" d="M87.65,271.56c2.17,9.75,2.6,20.91,1.28,33.19-2.38,22.23-9.89,39.36-14.88,48.68l35.59-28.27c-.34-7.72-1.88-15.34-4.44-22.07-4.82-10.52-11.23-21.18-17.55-31.54Z"></path>
      <path class="cls-14" fill="url(#linear-gradient-14)" d="M132.05,395.37c-.11,0-.23,0-.34,0-5.45,0-10.53-1.62-14.7-4.69-.72-.43-1.42-.89-2.09-1.38-2.71,7.74-6.07,10.9-8.72,12.8-.02.02-.05.03-.07.05-3.42,2.24-8.59,3.38-15.36,3.38-1.27,0-2.59-.04-3.93-.12-5.03-.31-10.68-1.21-16.09-2.56,3.01,2.96,6.4,5.82,10.31,8.73h0s.06.04.08.07c2.2,1.82,2.76,2.25,5.03,3.79.1.07.19.14.28.23,4.21.45,17.88,1.34,29.68-4.07,8.51-3.9,13.76-12.14,15.93-16.22Z"></path>
      <path class="cls-15" fill="url(#linear-gradient-14)" d="M100.33,400.4c-.73-.41-1.47-.83-2.21-1.26-3.12-1.82-7.85-4.77-12.69-8.44-9.85-7.48-16.33-14.96-19.3-22.25-3.49,12.19-.83,25.63-.08,28.91,14.04,4.56,27.48,4.98,34.28,3.04Z"></path>
    </g>
    <g>
      <path class="cls-16" fill="#EE2750" d="M1093.76,354.03h-77.36c.07,15.21,12.66,26.04,27.25,24.35,7.15-.83,13.12-3.59,17.08-9.81,1.33-2.09,2.83-3.21,5.47-3.16,8.17.14,16.34.05,25.19.05-.6,2.21-.83,3.98-1.54,5.53-7.97,17.31-21.55,27.21-40.38,29.47-8.35,1-16.8.69-24.97-1.95-17.83-5.75-29.28-17.64-34.27-35.68-3.36-12.14-3.26-24.38.49-36.32,6.79-21.63,22.23-33.21,44.37-35.68,23.39-2.61,48.38,7.67,56.8,34.38,2.86,9.07,2.94,18.3,1.87,28.84ZM1065.99,335.17c-1.11-14.34-10.55-22.27-25.53-22.11-13.45.14-23.16,9.04-23.8,22.11h49.33Z"></path>
      <path class="cls-16" fill="#EE2750" d="M805.71,398.82h-26.79v-133.93h82.55v21.22h-55.35v34.27c6.8.46,13.75.16,20.69.21,6.99.05,13.97.01,21.33.01v21.26c-13.79.73-27.77-.13-42.43.51v56.45Z"></path>
      <path class="cls-16" fill="#EE2750" d="M984.91,292.34v27.36h-39.64v79.04h-26.33c-1.35-4.59-1.8-96.89-.43-106.16h26.24v20.25c.55.11,1.11.22,1.66.33.62-2.17,1.22-4.34,1.88-6.5,2.57-8.49,8.21-13.58,17.1-14.23,6.28-.46,12.62-.09,19.53-.09Z"></path>
      <path class="cls-16" fill="#EE2750" d="M872.12,398.71v-106.14h26.42v106.14h-26.42Z"></path>
      <path class="cls-16" fill="#EE2750" d="M872.04,286.41c0-6.69-.54-12.59.14-18.35.84-7.08,6.44-11.6,13.63-11.92,4.05-.18,8.12-.03,13-.03,0,6.9.32,13.41-.11,19.86-.28,4.21-3.32,7.2-7.38,7.97-6.16,1.17-12.46,1.64-19.27,2.48Z"></path>
    </g>
    <g>
      <path class="cls-10" fill="url(#linear-gradient-10)" d="M386.5,288.69c-.98.78-1.6,1.41-2.34,1.84-7.06,4.06-14.13,8.09-20.91,11.96-.91-.41-1.45-.48-1.7-.79-11.51-14.24-26.41-16.65-43-11.81-15.23,4.44-25.76,18.09-26.96,35.02-.46,6.49-.2,13.26,1.14,19.61,5.01,23.9,26.11,33.78,46.55,31.06,15.86-2.11,25.94-11.05,30.71-26.16.39-1.24.38-2.6.64-4.45h-45.23c-.87-6.86-.59-13.29-.15-20.19h72.55c.05,3.33-.12,6.87.2,10.37,1.54,16.69-4.2,30.87-15.12,43.05-10.85,12.11-24.41,19.37-40.69,21.39-24.66,3.07-45.96-3.56-62.74-22.26-12.32-13.73-17.16-30.44-16.27-48.52,1.32-26.8,13.01-47.81,37.99-59.22,24.14-11.03,48.16-9.4,70.92,4.71,5.78,3.59,10.6,8.35,14.44,14.4Z"></path>
      <path class="cls-10" fill="url(#linear-gradient-10)" d="M536.93,304.79v-12.29h26.76v106.56c-8.7.28-17.39.21-26.9,0v-14.2c-1.89,1.57-2.78,2.15-3.47,2.91-17.61,19.12-53.21,17.82-70.27-6.6-13.65-19.54-14.14-49.63-1.16-69.62,15.91-24.52,51.61-28.19,71.14-8.39.76.78,1.62,1.46,2.43,2.19.49-.19.98-.38,1.47-.57ZM537.13,347.44c-.66-4.79-.87-8.21-1.64-11.51-2.71-11.6-12.52-20.28-23.77-21.3-12.91-1.17-23.72,4.74-28.56,16.42-4.71,11.35-4.18,22.71,2.44,33.28,5.34,8.53,13.44,13.03,23.43,12.74,10.75-.32,19.34-5.31,23.96-15.27,2.24-4.83,3.02-10.33,4.14-14.36Z"></path>
      <path class="cls-10" fill="url(#linear-gradient-10)" d="M674.31,365.57h25.55c2.93,3.78,4.84,7.66,7.94,9.96,7.16,5.32,15.33,5.03,23.32,1.81,3.57-1.44,5.65-4.41,5.67-8.56.01-4.25-2.28-6.89-5.99-8.19-6.41-2.25-12.93-4.19-19.4-6.27-5.61-1.8-11.37-3.23-16.79-5.5-10.39-4.34-17.18-11.81-17.99-23.54-.81-11.71,4.09-20.78,13.77-27.14,10.74-7.06,22.79-8.6,35.3-7.33,3.36.34,6.74,1.08,9.98,2.06,15.67,4.72,24.41,15.57,26.1,32.47h-24.96c-5.85-11.85-15.01-16.05-26.35-12.18-3.97,1.35-6.8,3.63-7.3,8.04-.47,4.21,1.36,7.61,6.17,9.52,5.88,2.33,12.04,3.96,18.08,5.9,5.61,1.8,11.38,3.23,16.79,5.5,10.81,4.54,17.95,12.14,18.64,24.54.71,12.7-4.93,21.9-15.68,28.09-17.06,9.83-43.99,7.88-59.39-4.29-7.77-6.15-12.84-13.93-13.47-24.91Z"></path>
      <path class="cls-10" fill="url(#linear-gradient-10)" d="M576.87,365.62h26.63c.57,1.17,1.25,2.54,1.9,3.93,2.42,5.1,6.59,8.3,11.95,9.17,4.19.68,8.6.36,12.87-.03,1.9-.17,3.89-1.34,5.48-2.53,5.75-4.29,5.37-11.85-1.09-14.97-5.06-2.45-10.62-3.9-16.01-5.64-7.11-2.3-14.48-3.96-21.37-6.79-9.28-3.81-16.13-10.36-17.55-20.89-1.76-12.98,3-23.23,14.12-30.19,10.65-6.67,22.48-8.2,34.75-6.87,8.48.92,16.46,3.37,23.2,8.9,7.98,6.55,12.17,14.94,12.75,25.67h-25.47c-1.11-5.04-3.8-9.44-8.95-11.57-5.16-2.13-10.53-2.58-15.98-.88-5.36,1.67-8.1,4.37-8.31,8.66-.23,4.78,2.5,7.77,6.62,9.29,5.73,2.12,11.63,3.8,17.45,5.67,5.61,1.8,11.38,3.21,16.8,5.46,11.07,4.6,18.38,12.31,18.94,25.03.57,13.01-5.23,22.68-16.67,28.09-19.2,9.08-38.41,8.23-56.46-3.32-9.2-5.88-14.64-14.6-15.6-26.19Z"></path>
      <path class="cls-10" fill="url(#linear-gradient-10)" d="M412.95,256.62h26.19v142.17h-26.19v-142.17Z"></path>
    </g>
  </g>
  <g>
    <path class="cls-10" fill="url(#linear-gradient-10)" d="M433.32,94.54c-3.36-2.83-7.78-4.25-13.25-4.25s-9.91,1.39-13.32,4.18c-3.41,2.79-5.11,6.77-5.11,11.95,0,4.8,1.66,8.71,4.97,11.74,3.31,3.02,7.8,4.54,13.46,4.54s10.13-1.53,13.39-4.61c3.26-3.07,4.9-6.96,4.9-11.66,0-5.09-1.68-9.05-5.04-11.88Z"></path>
    <path class="cls-10" fill="url(#linear-gradient-10)" d="M149.5,46.8c-5.18,0-9.29,1.61-12.31,4.82-3.02,3.22-4.54,7.47-4.54,12.74s1.46,9.24,4.39,12.46c2.93,3.22,7.32,4.82,13.18,4.82,4.99,0,8.93-1.53,11.81-4.61,2.88-3.07,4.32-7.2,4.32-12.38,0-5.66-1.51-10.06-4.54-13.18-3.02-3.12-7.13-4.68-12.31-4.68Z"></path>
    <polygon class="cls-10" points="733.41 99.07 733.41 55.01 703.89 99.07 733.41 99.07"></polygon>
    <path class="cls-10" fill="url(#linear-gradient-10)" d="M408.76,71.71c2.93,2.59,6.7,3.89,11.3,3.89s8.4-1.32,11.38-3.96c2.97-2.64,4.46-6.12,4.46-10.44,0-4.7-1.42-8.35-4.25-10.94-2.83-2.59-6.7-3.89-11.59-3.89s-8.62,1.3-11.45,3.89c-2.83,2.59-4.25,6.29-4.25,11.09,0,4.32,1.46,7.78,4.39,10.37Z"></path>
    <path class="cls-10" fill="url(#linear-gradient-10)" d="M291.77,46.8c-5.18,0-9.29,1.61-12.31,4.82-3.02,3.22-4.54,7.47-4.54,12.74s1.46,9.24,4.39,12.46c2.93,3.22,7.32,4.82,13.18,4.82,4.99,0,8.93-1.53,11.81-4.61,2.88-3.07,4.32-7.2,4.32-12.38,0-5.66-1.51-10.06-4.54-13.18-3.02-3.12-7.13-4.68-12.31-4.68Z"></path>
    <path class="cls-10" fill="url(#linear-gradient-10)" d="M513.81,84.53c-5.09,0-9.36,1.49-12.82,4.46-3.46,2.98-5.18,7.3-5.18,12.96s1.61,10.13,4.82,13.39c3.21,3.26,7.75,4.9,13.61,4.9,5.18,0,9.29-1.58,12.31-4.75,3.02-3.17,4.54-7.44,4.54-12.82s-1.46-9.98-4.39-13.25c-2.93-3.26-7.22-4.9-12.89-4.9Z"></path>
    <path class="cls-10" fill="url(#linear-gradient-10)" d="M1061.32,0H84.53C37.85,0,0,37.85,0,84.53H0C0,131.21,37.85,169.06,84.53,169.06h976.79c46.68,0,84.53-37.85,84.53-84.53h0C1145.85,37.85,1108,0,1061.32,0ZM182.83,112.9c-2.16,7.97-5.86,14.02-11.09,18.14-5.23,4.13-12.36,6.19-21.38,6.19-7.11,0-13.15-1.37-18.14-4.1-4.99-2.74-8.81-6.34-11.45-10.8-2.64-4.46-4.15-9.38-4.54-14.76h18.72c.77,4.23,2.52,7.47,5.26,9.72,2.74,2.26,6.41,3.38,11.02,3.38,5.95,0,10.27-2.47,12.96-7.42,2.69-4.94,4.03-13.27,4.03-24.98-2.21,3.07-5.3,5.47-9.29,7.2-3.98,1.73-8.28,2.59-12.89,2.59-6.14,0-11.69-1.27-16.63-3.82-4.95-2.54-8.86-6.34-11.74-11.38s-4.32-11.16-4.32-18.36c0-10.66,3.17-19.13,9.5-25.42,6.34-6.29,14.98-9.43,25.92-9.43,13.63,0,23.26,4.37,28.87,13.1,5.62,8.74,8.42,21.89,8.42,39.46,0,12.48-1.08,22.7-3.24,30.67ZM234.02,137.09h-20.74V50.69h-13.97v-18.58h34.7v104.98ZM325.1,112.9c-2.16,7.97-5.86,14.02-11.09,18.14-5.23,4.13-12.36,6.19-21.38,6.19-7.11,0-13.15-1.37-18.14-4.1-4.99-2.74-8.81-6.34-11.45-10.8-2.64-4.46-4.15-9.38-4.54-14.76h18.72c.77,4.23,2.52,7.47,5.26,9.72,2.74,2.26,6.41,3.38,11.02,3.38,5.95,0,10.27-2.47,12.96-7.42,2.69-4.94,4.03-13.27,4.03-24.98-2.21,3.07-5.3,5.47-9.29,7.2-3.98,1.73-8.28,2.59-12.89,2.59-6.14,0-11.69-1.27-16.63-3.82-4.95-2.54-8.86-6.34-11.74-11.38s-4.32-11.16-4.32-18.36c0-10.66,3.17-19.13,9.5-25.42,6.34-6.29,14.98-9.43,25.92-9.43,13.63,0,23.26,4.37,28.87,13.1,5.62,8.74,8.42,21.89,8.42,39.46,0,12.48-1.08,22.7-3.24,30.67ZM364.05,134.71c-2.3,2.26-5.23,3.38-8.78,3.38s-6.65-1.13-9-3.38c-2.35-2.25-3.53-5.06-3.53-8.42s1.17-6.17,3.53-8.42c2.35-2.25,5.35-3.38,9-3.38s6.48,1.13,8.78,3.38c2.3,2.26,3.46,5.06,3.46,8.42s-1.15,6.17-3.46,8.42ZM453.12,124.35c-3.31,4.85-7.85,8.57-13.61,11.16s-12.24,3.89-19.44,3.89-13.66-1.3-19.37-3.89c-5.71-2.59-10.22-6.31-13.54-11.16-3.31-4.85-4.97-10.53-4.97-17.06,0-6.05,1.49-11.3,4.46-15.77,2.97-4.46,7.1-7.8,12.38-10.01-9.6-4.99-14.4-12.72-14.4-23.18,0-5.18,1.32-9.91,3.96-14.18,2.64-4.27,6.62-7.68,11.95-10.22,5.33-2.54,11.83-3.82,19.51-3.82s14.18,1.27,19.51,3.82c5.33,2.54,9.31,5.95,11.95,10.22,2.64,4.27,3.96,9,3.96,14.18s-1.3,9.91-3.89,13.9c-2.59,3.98-6.05,7.08-10.37,9.29,5.28,2.3,9.41,5.67,12.38,10.08,2.97,4.42,4.46,9.65,4.46,15.7,0,6.53-1.66,12.22-4.97,17.06ZM546.14,120.46c-2.74,5.33-6.75,9.48-12.02,12.46-5.28,2.98-11.57,4.46-18.86,4.46-9.99,0-17.83-2.21-23.54-6.62-5.71-4.41-9.7-10.58-11.95-18.5-2.26-7.92-3.38-17.69-3.38-29.3,0-17.57,3.02-30.84,9.07-39.82,6.05-8.98,15.6-13.46,28.66-13.46,10.08,0,17.9,2.74,23.47,8.21,5.57,5.47,8.78,12.29,9.65,20.45h-18.72c-.96-4.03-2.62-7.06-4.97-9.07-2.35-2.02-5.74-3.02-10.15-3.02-6.62,0-11.5,2.66-14.62,7.99-3.12,5.33-4.73,13.99-4.82,25.99,2.3-3.84,5.66-6.84,10.08-9,4.41-2.16,9.22-3.24,14.4-3.24,6.24,0,11.76,1.35,16.56,4.03,4.8,2.69,8.54,6.6,11.23,11.74,2.69,5.14,4.03,11.3,4.03,18.5,0,6.82-1.37,12.89-4.1,18.22ZM633.04,47.38l-38.3,89.71h-20.45l38.59-87.41h-49.25v-17.28h69.41v14.98ZM665.15,134.71c-2.3,2.26-5.23,3.38-8.78,3.38s-6.65-1.13-9-3.38c-2.35-2.25-3.53-5.06-3.53-8.42s1.17-6.17,3.53-8.42c2.35-2.25,5.35-3.38,9-3.38s6.48,1.13,8.78,3.38c2.3,2.26,3.46,5.06,3.46,8.42s-1.15,6.17-3.46,8.42ZM764.94,116.64h-12.67v20.45h-20.16v-20.45h-50.4v-15.84l47.09-67.39h23.47v65.66h12.67v17.57ZM845.66,127.01c-6.29,6.72-15.24,10.08-26.86,10.08-10.94,0-19.68-2.74-26.21-8.21-6.53-5.47-10.22-12.62-11.09-21.46h19.58c.86,3.84,2.81,6.91,5.83,9.22,3.02,2.3,6.89,3.46,11.59,3.46,5.66,0,9.94-1.77,12.82-5.33,2.88-3.55,4.32-8.26,4.32-14.11s-1.46-10.49-4.39-13.61c-2.93-3.12-7.22-4.68-12.89-4.68-4.03,0-7.39,1.01-10.08,3.02-2.69,2.02-4.61,4.7-5.76,8.06h-19.3V31.83h65.09v17.71h-46.66v24.62c2.02-2.5,4.9-4.54,8.64-6.12s7.73-2.38,11.95-2.38c7.68,0,13.97,1.68,18.86,5.04,4.9,3.36,8.45,7.66,10.66,12.89,2.21,5.23,3.31,10.82,3.31,16.78,0,11.04-3.15,19.92-9.43,26.64ZM952.86,116.64h-12.67v20.45h-20.16v-20.45h-50.4v-15.84l47.09-67.39h23.47v65.66h12.67v17.57ZM1032.49,47.38l-38.3,89.71h-20.45l38.59-87.41h-49.25v-17.28h69.41v14.98Z"></path>
    <polygon class="cls-10" points="921.33 99.07 921.33 55.01 891.81 99.07 921.33 99.07"></polygon>
  </g>
  <g>
    <path class="cls-16" fill="#EE2750" d="M880.86,528.17c-2.64-2.25-5.86-3.38-9.67-3.38-3.61,0-6.64,1.09-9.1,3.28-2.46,2.18-3.97,5.22-4.52,9.1h27.35c-.07-3.74-1.42-6.74-4.06-9Z"></path>
    <path class="cls-16" fill="#EE2750" d="M1065.08,459.03H80.77C36.16,459.03,0,495.2,0,539.81H0C0,584.41,36.16,620.58,80.77,620.58h984.3c44.61,0,80.77-36.16,80.77-80.77h0c0-44.61-36.16-80.77-80.77-80.77ZM144.86,571.38h-14.56v-31.82c0-4.58-1.14-8.09-3.43-10.56-2.29-2.46-5.41-3.69-9.36-3.69s-7.19,1.23-9.52,3.69c-2.32,2.46-3.48,5.98-3.48,10.56v31.82h-14.56v-76.96h14.56v26.52c1.87-2.5,4.37-4.45,7.49-5.88,3.12-1.42,6.59-2.13,10.4-2.13,4.37,0,8.25.95,11.65,2.86,3.4,1.91,6.05,4.72,7.96,8.42,1.91,3.71,2.86,8.16,2.86,13.36v33.8ZM211.84,546.94h-42.12c.35,4.16,1.8,7.42,4.37,9.78,2.56,2.36,5.72,3.54,9.46,3.54,5.41,0,9.26-2.32,11.54-6.97h15.7c-1.66,5.55-4.85,10.11-9.57,13.68-4.72,3.57-10.5,5.36-17.37,5.36-5.55,0-10.52-1.23-14.92-3.69-4.4-2.46-7.84-5.94-10.3-10.45-2.46-4.51-3.69-9.71-3.69-15.6s1.21-11.2,3.64-15.7c2.43-4.51,5.82-7.97,10.19-10.4,4.37-2.43,9.39-3.64,15.08-3.64s10.38,1.18,14.72,3.54c4.33,2.36,7.7,5.7,10.09,10.04,2.39,4.33,3.59,9.31,3.59,14.92,0,2.08-.14,3.95-.42,5.62ZM237.42,571.38h-14.56v-76.96h14.56v76.96ZM266.33,571.38h-14.56v-76.96h14.56v76.96ZM332.32,558.17c-2.67,4.51-6.28,7.99-10.82,10.45-4.54,2.46-9.62,3.69-15.24,3.69s-10.54-1.23-14.98-3.69c-4.44-2.46-7.92-5.94-10.45-10.45-2.53-4.51-3.8-9.71-3.8-15.6s1.3-11.09,3.9-15.6c2.6-4.51,6.15-7.99,10.66-10.45,4.51-2.46,9.53-3.69,15.08-3.69s10.57,1.23,15.08,3.69c4.51,2.46,8.06,5.95,10.66,10.45,2.6,4.51,3.9,9.71,3.9,15.6s-1.34,11.09-4,15.6ZM438.71,555.05c-1.98,5.06-4.84,9.15-8.58,12.27-3.74,3.12-8.18,4.68-13.31,4.68-3.61,0-6.52-.74-8.74-2.24-2.22-1.49-3.64-3.62-4.26-6.4-2.01,2.7-4.61,4.84-7.8,6.4-3.19,1.56-6.55,2.34-10.09,2.34-5.27,0-9.4-1.58-12.38-4.73-2.98-3.15-4.47-7.47-4.47-12.95s1.07-10.05,3.22-14.56c2.15-4.51,5.13-8.13,8.94-10.87,3.81-2.74,8.11-4.11,12.9-4.11,5.96,0,10.05,2.08,12.27,6.24l.94-5.41h12.17l-4.89,28.08c-.21,1.32-.31,2.53-.31,3.64,0,1.66.35,2.91,1.04,3.74.69.83,1.87,1.25,3.54,1.25,2.5,0,4.59-1.18,6.29-3.54,1.7-2.36,2.98-5.3,3.85-8.84.87-3.54,1.3-7.07,1.3-10.61,0-8.39-2.57-14.89-7.7-19.5-5.13-4.61-12.38-6.92-21.74-6.92-7.97,0-15.18,1.92-21.63,5.77-6.45,3.85-11.49,9.08-15.13,15.7-3.64,6.62-5.46,13.99-5.46,22.1,0,8.6,2.55,15.22,7.64,19.86,5.1,4.64,12.32,6.97,21.68,6.97,6.72,0,12.65-1.21,17.78-3.64l2.08,9.57c-6.59,2.77-13.9,4.16-21.94,4.16s-14.56-1.47-20.38-4.42c-5.82-2.95-10.33-7.12-13.52-12.53-3.19-5.41-4.78-11.68-4.78-18.82,0-10.19,2.37-19.45,7.12-27.77,4.75-8.32,11.34-14.87,19.76-19.66,8.42-4.78,17.87-7.18,28.34-7.18,8.04,0,15.01,1.49,20.9,4.47,5.89,2.98,10.42,7.18,13.57,12.58,3.15,5.41,4.73,11.65,4.73,18.72,0,5.69-.99,11.06-2.96,16.12ZM512.61,571.79c0,5.34-1.08,10.1-3.22,14.3-2.15,4.19-5.37,7.52-9.67,9.98-4.3,2.46-9.5,3.69-15.6,3.69-8.18,0-14.89-1.91-20.12-5.72-5.24-3.81-8.2-9.01-8.89-15.6h14.46c.76,2.63,2.41,4.73,4.94,6.29,2.53,1.56,5.6,2.34,9.2,2.34,4.23,0,7.66-1.27,10.3-3.8,2.63-2.53,3.95-6.36,3.95-11.49v-8.94c-1.87,2.7-4.46,4.96-7.75,6.76-3.29,1.8-7.06,2.7-11.28,2.7-4.85,0-9.29-1.25-13.31-3.74-4.02-2.5-7.19-6.01-9.52-10.56-2.32-4.54-3.48-9.76-3.48-15.65s1.16-10.99,3.48-15.5c2.32-4.51,5.48-7.97,9.46-10.4,3.99-2.43,8.44-3.64,13.36-3.64,4.3,0,8.08.85,11.34,2.55,3.26,1.7,5.82,3.9,7.7,6.6v-8.22h14.66v58.03ZM541.41,571.38h-14.56v-76.96h14.56v76.96ZM612.03,571.38h-14.66v-8.42c-1.87,2.7-4.46,4.94-7.75,6.71-3.29,1.77-7.09,2.65-11.39,2.65-4.85,0-9.27-1.25-13.26-3.74-3.99-2.5-7.14-6.01-9.46-10.56-2.32-4.54-3.48-9.76-3.48-15.65s1.16-10.99,3.48-15.5c2.32-4.51,5.48-7.97,9.46-10.4,3.99-2.43,8.44-3.64,13.36-3.64,4.3,0,8.06.87,11.28,2.6,3.22,1.73,5.81,3.92,7.75,6.55v-8.22h14.66v57.62ZM668.24,563.89c-1.84,2.64-4.47,4.7-7.9,6.19-3.43,1.49-7.44,2.24-12.01,2.24s-8.94-.85-12.69-2.55-6.71-4-8.89-6.92c-2.18-2.91-3.38-6.14-3.59-9.67h14.66c.28,2.22,1.37,4.06,3.28,5.51,1.91,1.46,4.28,2.18,7.12,2.18s4.94-.55,6.5-1.66c1.56-1.11,2.34-2.53,2.34-4.26,0-1.87-.95-3.28-2.86-4.21-1.91-.94-4.94-1.96-9.1-3.07-4.3-1.04-7.82-2.11-10.56-3.22-2.74-1.11-5.1-2.81-7.07-5.1s-2.96-5.37-2.96-9.26c0-3.19.92-6.1,2.76-8.74,1.84-2.63,4.47-4.71,7.9-6.24,3.43-1.52,7.47-2.29,12.12-2.29,6.86,0,12.34,1.72,16.43,5.15,4.09,3.43,6.34,8.06,6.76,13.88h-13.94c-.21-2.29-1.16-4.11-2.86-5.46-1.7-1.35-3.97-2.03-6.81-2.03-2.64,0-4.66.49-6.08,1.46-1.42.97-2.13,2.32-2.13,4.06,0,1.94.97,3.42,2.91,4.42,1.94,1.01,4.96,2.03,9.05,3.07,4.16,1.04,7.59,2.12,10.3,3.22,2.7,1.11,5.04,2.83,7.02,5.15,1.98,2.32,3,5.39,3.07,9.2,0,3.33-.92,6.31-2.76,8.94ZM724.92,563.89c-1.84,2.64-4.47,4.7-7.9,6.19-3.43,1.49-7.44,2.24-12.01,2.24s-8.94-.85-12.69-2.55-6.71-4-8.89-6.92c-2.18-2.91-3.38-6.14-3.59-9.67h14.66c.28,2.22,1.37,4.06,3.28,5.51,1.91,1.46,4.28,2.18,7.12,2.18s4.94-.55,6.5-1.66c1.56-1.11,2.34-2.53,2.34-4.26,0-1.87-.95-3.28-2.86-4.21-1.91-.94-4.94-1.96-9.1-3.07-4.3-1.04-7.82-2.11-10.56-3.22-2.74-1.11-5.1-2.81-7.07-5.1s-2.96-5.37-2.96-9.26c0-3.19.92-6.1,2.76-8.74,1.84-2.63,4.47-4.71,7.9-6.24,3.43-1.52,7.47-2.29,12.12-2.29,6.86,0,12.34,1.72,16.43,5.15,4.09,3.43,6.34,8.06,6.76,13.88h-13.94c-.21-2.29-1.16-4.11-2.86-5.46-1.7-1.35-3.97-2.03-6.81-2.03-2.64,0-4.66.49-6.08,1.46-1.42.97-2.13,2.32-2.13,4.06,0,1.94.97,3.42,2.91,4.42,1.94,1.01,4.96,2.03,9.05,3.07,4.16,1.04,7.59,2.12,10.3,3.22,2.7,1.11,5.04,2.83,7.02,5.15,1.98,2.32,3,5.39,3.07,9.2,0,3.33-.92,6.31-2.76,8.94ZM766.05,525.72h-10.09v45.66h-14.77v-45.66h-6.55v-11.96h6.55v-2.91c0-7.07,2.01-12.27,6.03-15.6,4.02-3.33,10.09-4.89,18.2-4.68v12.27c-3.54-.07-6,.52-7.38,1.77-1.39,1.25-2.08,3.5-2.08,6.76v2.39h10.09v11.96ZM790.07,571.38h-14.56v-57.62h14.56v57.62ZM789.29,504.45c-1.7,1.63-3.83,2.44-6.4,2.44s-4.7-.81-6.4-2.44c-1.7-1.63-2.55-3.66-2.55-6.08s.85-4.45,2.55-6.08c1.7-1.63,3.83-2.44,6.4-2.44s4.7.82,6.4,2.44c1.7,1.63,2.55,3.66,2.55,6.08s-.85,4.46-2.55,6.08ZM836.67,528.22h-3.85c-4.58,0-8.03,1.08-10.35,3.22-2.32,2.15-3.48,5.89-3.48,11.23v28.7h-14.56v-57.62h14.56v8.94c1.87-3.05,4.32-5.44,7.33-7.18,3.02-1.73,6.46-2.6,10.35-2.6v15.29ZM899.59,546.94h-42.12c.35,4.16,1.8,7.42,4.37,9.78,2.56,2.36,5.72,3.54,9.46,3.54,5.41,0,9.26-2.32,11.54-6.97h15.7c-1.66,5.55-4.85,10.11-9.57,13.68-4.72,3.57-10.5,5.36-17.37,5.36-5.55,0-10.52-1.23-14.92-3.69-4.4-2.46-7.84-5.94-10.3-10.45-2.46-4.51-3.69-9.71-3.69-15.6s1.21-11.2,3.64-15.7c2.43-4.51,5.82-7.97,10.19-10.4,4.37-2.43,9.39-3.64,15.08-3.64s10.38,1.18,14.72,3.54c4.33,2.36,7.7,5.7,10.09,10.04,2.39,4.33,3.59,9.31,3.59,14.92,0,2.08-.14,3.95-.42,5.62ZM923.4,569.66c-1.66,1.63-3.78,2.44-6.34,2.44s-4.8-.81-6.5-2.44c-1.7-1.63-2.55-3.66-2.55-6.08s.85-4.45,2.55-6.08c1.7-1.63,3.86-2.44,6.5-2.44s4.68.82,6.34,2.44c1.66,1.63,2.5,3.66,2.5,6.08s-.83,4.46-2.5,6.08ZM952.42,555.31c2.43,3.02,5.72,4.52,9.88,4.52,5.89,0,9.74-2.63,11.54-7.9h15.7c-1.6,6.24-4.75,11.2-9.46,14.87-4.72,3.68-10.61,5.51-17.68,5.51-5.55,0-10.47-1.23-14.77-3.69-4.3-2.46-7.66-5.93-10.09-10.4-2.43-4.47-3.64-9.69-3.64-15.65s1.21-11.18,3.64-15.65c2.43-4.47,5.79-7.94,10.09-10.4,4.3-2.46,9.22-3.69,14.77-3.69,7.14,0,13.05,1.79,17.73,5.36,4.68,3.57,7.82,8.58,9.41,15.03h-15.7c-.83-2.5-2.24-4.45-4.21-5.88-1.98-1.42-4.42-2.13-7.33-2.13-4.16,0-7.45,1.51-9.88,4.52-2.43,3.02-3.64,7.3-3.64,12.84s1.21,9.72,3.64,12.74ZM1051.89,558.17c-2.67,4.51-6.28,7.99-10.82,10.45-4.54,2.46-9.62,3.69-15.24,3.69s-10.54-1.23-14.98-3.69c-4.44-2.46-7.92-5.94-10.45-10.45-2.53-4.51-3.8-9.71-3.8-15.6s1.3-11.09,3.9-15.6c2.6-4.51,6.15-7.99,10.66-10.45,4.51-2.46,9.53-3.69,15.08-3.69s10.57,1.23,15.08,3.69c4.51,2.46,8.06,5.95,10.66,10.45,2.6,4.51,3.9,9.71,3.9,15.6s-1.34,11.09-4,15.6Z"></path>
    <path class="cls-16" fill="#EE2750" d="M306.48,525.51c-4.16,0-7.64,1.47-10.45,4.42-2.81,2.95-4.21,7.16-4.21,12.64s1.37,9.69,4.11,12.64c2.74,2.95,6.19,4.42,10.35,4.42,2.63,0,5.11-.64,7.44-1.92,2.32-1.28,4.18-3.21,5.56-5.77,1.39-2.56,2.08-5.68,2.08-9.36,0-5.48-1.44-9.69-4.32-12.64-2.88-2.95-6.4-4.42-10.56-4.42Z"></path>
    <path class="cls-16" fill="#EE2750" d="M589.67,527.65c-2.36-1.35-4.89-2.03-7.59-2.03s-5.2.66-7.49,1.98c-2.29,1.32-4.14,3.24-5.56,5.77-1.42,2.53-2.13,5.53-2.13,9s.71,6.5,2.13,9.1c1.42,2.6,3.29,4.59,5.62,5.98,2.32,1.39,4.8,2.08,7.44,2.08s5.23-.68,7.59-2.03c2.36-1.35,4.23-3.29,5.62-5.82,1.39-2.53,2.08-5.56,2.08-9.1s-.69-6.57-2.08-9.1c-1.39-2.53-3.26-4.47-5.62-5.82Z"></path>
    <path class="cls-16" fill="#EE2750" d="M490.25,527.65c-2.36-1.35-4.89-2.03-7.59-2.03s-5.2.66-7.49,1.98c-2.29,1.32-4.14,3.24-5.56,5.77-1.42,2.53-2.13,5.53-2.13,9s.71,6.5,2.13,9.1c1.42,2.6,3.29,4.59,5.62,5.98,2.32,1.39,4.8,2.08,7.44,2.08s5.23-.68,7.59-2.03c2.36-1.35,4.23-3.29,5.62-5.82,1.39-2.53,2.08-5.56,2.08-9.1s-.69-6.57-2.08-9.1c-1.39-2.53-3.26-4.47-5.62-5.82Z"></path>
    <path class="cls-16" fill="#EE2750" d="M395.09,535.71c-2.57,0-4.82.78-6.76,2.34-1.94,1.56-3.45,3.59-4.52,6.08-1.08,2.5-1.61,5.13-1.61,7.9s.69,5.1,2.08,6.76c1.39,1.66,3.47,2.5,6.24,2.5,2.5,0,4.78-.73,6.86-2.18,2.08-1.46,3.73-3.4,4.94-5.82,1.21-2.43,1.82-5.03,1.82-7.8,0-2.91-.8-5.27-2.39-7.07-1.6-1.8-3.81-2.7-6.66-2.7Z"></path>
    <path class="cls-16" fill="#EE2750" d="M193.12,528.17c-2.64-2.25-5.86-3.38-9.67-3.38-3.61,0-6.64,1.09-9.1,3.28-2.46,2.18-3.97,5.22-4.52,9.1h27.35c-.07-3.74-1.42-6.74-4.06-9Z"></path>
    <path class="cls-16" fill="#EE2750" d="M1026.05,525.51c-4.16,0-7.64,1.47-10.45,4.42-2.81,2.95-4.21,7.16-4.21,12.64s1.37,9.69,4.11,12.64c2.74,2.95,6.19,4.42,10.35,4.42,2.63,0,5.11-.64,7.44-1.92,2.32-1.28,4.18-3.21,5.56-5.77,1.39-2.56,2.08-5.68,2.08-9.36,0-5.48-1.44-9.69-4.32-12.64-2.88-2.95-6.4-4.42-10.56-4.42Z"></path>
  </g>
</svg>