<?xml version="1.0"?>
<svg id="Layer_2" data-name="Layer 2" xmlns="http://www.w3.org/2000/svg" xmlns:xlink="http://www.w3.org/1999/xlink" viewBox="0 0 1123.86 1613.4">
  
  <defs>
    
    <linearGradient id="linear-gradient" x1="622.43" y1="-244.76" x2="1030.56" y2="1871.46" gradientUnits="userSpaceOnUse">
      <stop offset="0" stop-color="#ef404e"></stop>
      <stop offset=".36" stop-color="#ee3d4e"></stop>
      <stop offset=".51" stop-color="#ec3651"></stop>
      <stop offset=".63" stop-color="#e82a55"></stop>
      <stop offset=".73" stop-color="#e4185a"></stop>
      <stop offset=".73" stop-color="#e4185b"></stop>
      <stop offset=".79" stop-color="#e82459"></stop>
      <stop offset=".88" stop-color="#ec2d57"></stop>
      <stop offset="1" stop-color="#ee3157"></stop>
    </linearGradient>
    <linearGradient id="linear-gradient-2" x1="443.17" y1="-210.18" x2="851.29" y2="1906.03" gradientUnits="userSpaceOnUse">
      <stop offset="0" stop-color="#ef404e"></stop>
      <stop offset=".33" stop-color="#ee3d4f"></stop>
      <stop offset=".47" stop-color="#ed3656"></stop>
      <stop offset=".58" stop-color="#eb2a62"></stop>
      <stop offset=".67" stop-color="#e71872"></stop>
      <stop offset=".73" stop-color="#e50981"></stop>
      <stop offset=".77" stop-color="#e71574"></stop>
      <stop offset=".83" stop-color="#eb2463"></stop>
      <stop offset=".91" stop-color="#ed2e5a"></stop>
      <stop offset="1" stop-color="#ee3157"></stop>
    </linearGradient>
    <linearGradient id="linear-gradient-3" x1="316.93" y1="-185.84" x2="725.06" y2="1930.38" xlink:href="#linear-gradient-2"></linearGradient>
    <linearGradient id="linear-gradient-4" x1="751.23" y1="-269.59" x2="1159.36" y2="1846.62" xlink:href="#linear-gradient-2"></linearGradient>
    <linearGradient id="linear-gradient-5" x1="561.13" y1="-232.93" x2="969.26" y2="1883.28" xlink:href="#linear-gradient-2"></linearGradient>
    <linearGradient id="linear-gradient-6" x1="566.64" y1="-234" x2="974.77" y2="1882.22" xlink:href="#linear-gradient-2"></linearGradient>
    <linearGradient id="linear-gradient-7" x1="290.17" y1="-180.68" x2="698.3" y2="1935.54" xlink:href="#linear-gradient-2"></linearGradient>
    <linearGradient id="linear-gradient-8" x1="67.56" y1="506.02" x2="435.44" y2="1583.99" gradientUnits="userSpaceOnUse">
      <stop offset="0" stop-color="#00a8e4"></stop>
      <stop offset=".22" stop-color="#02a4e1"></stop>
      <stop offset=".39" stop-color="#0a9ada"></stop>
      <stop offset=".54" stop-color="#178acd"></stop>
      <stop offset=".69" stop-color="#2972bb"></stop>
      <stop offset=".8" stop-color="#3c5ba9"></stop>
      <stop offset=".84" stop-color="#385fac"></stop>
      <stop offset=".89" stop-color="#2d6db6"></stop>
      <stop offset=".94" stop-color="#1c83c8"></stop>
      <stop offset=".99" stop-color="#03a3e0"></stop>
      <stop offset="1" stop-color="#00a8e4"></stop>
    </linearGradient>
    <linearGradient id="linear-gradient-9" x1="-161.36" y1="584.14" x2="206.52" y2="1662.11" xlink:href="#linear-gradient-8"></linearGradient>
    <linearGradient id="linear-gradient-10" x1="11.81" y1="525.05" x2="379.68" y2="1603.01" xlink:href="#linear-gradient-8"></linearGradient>
    <linearGradient id="linear-gradient-11" x1="29.34" y1="519.06" x2="397.22" y2="1597.03" xlink:href="#linear-gradient-8"></linearGradient>
    <linearGradient id="linear-gradient-12" x1="104.93" y1="493.26" x2="472.81" y2="1571.23" xlink:href="#linear-gradient-8"></linearGradient>
    <linearGradient id="linear-gradient-13" x1="30.93" y1="518.52" x2="398.81" y2="1596.49" xlink:href="#linear-gradient-8"></linearGradient>
    <linearGradient id="linear-gradient-14" x1="-77.09" y1="555.38" x2="290.79" y2="1633.35" xlink:href="#linear-gradient-8"></linearGradient>
  </defs>
  <path class="cls-14" fill="url(#linear-gradient-14)" d="M916,802.14c.55.53,1.07,1.13,1.53,1.76,18.1,15.56,32.43,29.89,43.51,43.54-4.78-69.37-19.82-142.36-28.66-180.8-17.33-75.39-36.18-131.67-43.34-143.98-11.58-11.85-23.53-23.46-35.52-34.51-79.24-68.66-152.93-154.89-207.5-242.8-38.49-62.01-66.52-123.12-83.51-181.98-.48,117.97,24.71,235.93,75.02,350.98,59.83,136.86,153.53,267.33,278.47,387.79Z"></path>
  <path class="cls-2" fill="url(#linear-gradient-2)" d="M711.66,662.32c31.44,19.82,61.47,38.75,89.9,57.38-80.41-93.64-143.71-192.69-188.32-294.73-59.71-136.59-84.99-276.79-75.2-416.97-18.5,31.19-43.29,75.68-67.33,127.2-34.93,74.86-77.78,185.8-84.05,290.08,89.2,88.39,214.45,167.35,325.01,237.04Z"></path>
  <path class="cls-6" fill="url(#linear-gradient-6)" d="M429.83,1550.68c47.55-9.1,96.98-26.93,146.92-52.98,61.42-32.05,123.91-76.77,185.72-132.94,58.03-115.76,68.44-207.26,30.92-271.95-27.5-47.41-76.77-71.93-113.27-84.14-20.22-6.77-38.91-10.64-52.61-12.81,33.49,60.59,57,118.13,69.89,171.12,12.34,50.7,7.21,107.3-14.81,163.68-18.85,48.25-49.52,94.84-86.37,131.18-40.73,40.18-102.13,70.98-182.61,91.62,5.37-.81,10.78-1.74,16.21-2.78Z"></path>
  <path class="cls-5" fill="url(#linear-gradient-5)" d="M1000.61,1123.44c2.6,13.52,7.66,48.44,4.04,101.88-3.3,48.83-15.24,125.62-52.82,219.33,28.9-28.83,54.94-60.81,77.56-95.26,8.8-13.38,17.22-27.36,25.02-41.57l2.98,1.47-2.88-1.64c43.04-75.66,66.27-158.19,69.06-245.31,2.01-62.89-6.64-127.63-25.73-192.62-21.48,93.19-83.31,224.74-97.23,253.72Z"></path>
  <path class="cls-7" fill="url(#linear-gradient-7)" d="M508.6,816.17c27.67,37.69,65.43,89.12,100.34,147.44,11.87-5.6,33.7-14.82,61.94-22.01,21.18-5.39,48.26-10.1,78.17-10.1,25.42,0,52.88,3.4,80.52,12.68,65.23,21.89,118.04,71.24,157.04,146.71,9.9-21.43,26.41-58.14,42.42-98.12,33.79-84.38,50.92-146.47,49.58-179.66-32.16-83.33-81.48-165.68-143.09-239.1,7.85,26.34,15.76,56.53,22.7,86.7,12.39,53.92,32.86,156.93,30.69,241.01-.17,6.59-5.24,12.11-11.8,12.83-.49.05-.98.08-1.46.08-6.08,0-11.37-4.13-12.85-10.03-5.88-23.48-27.08-50.48-64.82-82.54-50.01-42.47-123.08-88.54-200.45-137.31-104.22-65.7-222.04-139.97-311.52-223.35.16,6,.46,11.87.89,17.54,9.15,120.9,57.23,247.06,97.83,304.37,6.84,9.66,14.74,20.41,23.88,32.86Z"></path>
  <path class="cls-13" fill="url(#linear-gradient-13)" d="M974.07,1125.94c-36.71-82.15-88.11-134.83-152.78-156.59-53.87-18.13-107.65-11.21-143.27-2.22-7.88,1.99-15.77,4.3-23.58,6.9,11.43,2.58,22.67,5.7,33.52,9.31,58.79,19.56,103.16,52.78,128.3,96.07,41.79,71.95,32.49,170.29-27.65,292.33,12.76,17.35,53.88,68.38,120.16,105.73,50.28-108.39,65.49-197.22,69.36-252.86,3.93-56.52-2.53-91.4-4.06-98.66Z"></path>
  <path class="cls-10" fill="url(#linear-gradient-10)" d="M771.1,1392.65c-60.5,53.83-121.74,97.07-182.09,128.55-52.22,27.25-104.1,45.93-154.2,55.51-26.07,4.99-51.5,7.52-75.59,7.52-1.88.02-3.74-.02-5.6-.05,41.51,18.85,75.62,21.5,132.86,25.95l.34.03c5.86.46,11.93.93,18.25,1.44h.16c71.04,5.76,142.08-2.32,211.12-23.99,62.84-19.72,121.48-49.96,174.39-89.91-62.97-36.65-103.27-83.58-119.67-105.06Z"></path>
  <path class="cls-8" fill="url(#linear-gradient-8)" d="M118.84,1156.53c11.56,12.32,34.01,34.07,67.38,57.09,40.22,27.74,106.56,63.98,196.46,81.33-20.29-31.05-30.35-70.52-29.91-117.49.48-52.44,13.61-107.86,26.4-155.18,4.9-25.81,7.69-52.39,8.3-79.12l-268.62,213.37Z"></path>
  <path class="cls-11" fill="url(#linear-gradient-11)" d="M82.6,1160.51c-10.4-6.67-24.94-18.25-39.24-37.18-12.61-16.7-28.71-44.54-38.42-86.14-8.9,72.96-5.81,137.36,9.35,196.33,10.47,40.73,26.39,77.7,48.53,112.59-6.27-52.4-6.65-122.71,19.77-185.59Z"></path>
  <path class="cls-3" fill="url(#linear-gradient-3)" d="M129.88,1203.65c25.63,48.45,73.75,91.5,111.35,120.12,48.98,37.29,96.74,63.39,112.95,71.87,23.74-19.36,35.36-45.38,44-71.08-104.7-16.32-181.53-57.63-227.73-89.62-14.34-9.93-27.93-20.41-40.56-31.29Z"></path>
  <path class="cls-12" fill="url(#linear-gradient-12)" d="M64.01,1106.68c12.02,16.1,24.22,25.75,31.72,30.75,11.49-16.97,37.14-57.72,62.69-117.71,33.6-78.89,55.31-162.55,64.53-248.65,8.68-81.03,5.57-154.17-9.24-217.4-5.34-22.79-12.23-44.22-20.55-63.88-8.45,122.83-54.26,213.71-98.61,301.7-10.63,21.08-21.61,42.88-31.88,64.73v.63l-.56.56c-17.22,36.75-29.75,68.16-39.4,98.76.05,43.63,7.28,104.96,41.29,150.5Z"></path>
  <path class="cls-4" fill="url(#linear-gradient-4)" d="M240.78,553.1c14.41,64.85,17.29,139.09,8.54,220.79-15.83,147.84-65.76,261.82-98.98,323.78l236.74-188.04c-2.28-51.33-12.49-102.04-29.54-146.77-32.08-70-74.71-140.87-116.75-209.76Z"></path>
  <path class="cls-1" fill="url(#linear-gradient)" d="M536.12,1376.57c-.76.01-1.52.02-2.27.02-36.27,0-70.07-10.78-97.75-31.16-4.77-2.84-9.43-5.92-13.92-9.19-18.05,51.46-40.39,72.51-57.98,85.11-.16.11-.3.21-.45.31-22.72,14.92-57.1,22.49-102.18,22.49-8.42,0-17.22-.28-26.17-.82-33.47-2.03-71.04-8.03-107.03-17.03,20.01,19.67,42.54,38.74,68.54,58.03h0c.19.15.38.3.56.45,14.61,12.13,18.36,14.95,33.47,25.21.66.45,1.28.96,1.85,1.52,27.99,2.97,118.92,8.89,197.38-27.07,56.6-25.94,91.5-80.77,105.95-107.86Z"></path>
  <path class="cls-9" fill="url(#linear-gradient-9)" d="M325.12,1410.04c-4.85-2.71-9.77-5.52-14.69-8.4-20.75-12.13-52.24-31.72-84.42-56.15-65.52-49.73-108.65-99.47-128.34-147.99-23.24,81.09-5.53,170.45-.53,192.31,93.38,30.35,182.79,33.1,227.99,20.23Z"></path>
</svg>