<?xml version="1.0"?>
<svg id="Layer_2" data-name="Layer 2" xmlns="http://www.w3.org/2000/svg" viewBox="0 0 6048 2048">
  
  <defs>
    
  </defs>
  <g>
    <path class="cls-1" fill="#FFFFFF" d="M1109.03,1017.58c.42.4.8.84,1.15,1.32,13.58,11.67,24.33,22.42,32.64,32.66-3.58-52.04-14.87-106.79-21.5-135.63-13-56.55-27.14-98.78-32.51-108.01-8.69-8.89-17.65-17.6-26.65-25.89-59.44-51.51-114.72-116.19-155.66-182.14-28.88-46.52-49.9-92.36-62.65-136.52-.36,88.5,18.54,176.98,56.27,263.29,44.89,102.67,115.17,200.54,208.9,290.91Z"></path>
    <path class="cls-1" fill="#FFFFFF" d="M955.74,912.69c23.58,14.87,46.11,29.07,67.44,43.04-60.32-70.25-107.81-144.55-141.27-221.1-44.79-102.46-63.76-207.64-56.42-312.8-13.88,23.4-32.48,56.77-50.51,95.42-26.2,56.16-58.34,139.38-63.05,217.61,66.92,66.31,160.88,125.54,243.81,177.82Z"></path>
    <path class="cls-1" fill="#FFFFFF" d="M744.32,1579.11c35.67-6.83,72.75-20.2,110.21-39.75,46.08-24.04,92.95-57.59,139.32-99.73,43.54-86.84,51.34-155.48,23.2-204.01-20.63-35.57-57.59-53.96-84.97-63.12-15.17-5.08-29.19-7.98-39.47-9.61,25.13,45.45,42.76,88.62,52.43,128.37,9.25,38.04,5.41,80.5-11.11,122.79-14.14,36.19-37.15,71.14-64.79,98.41-30.55,30.14-76.62,53.25-136.98,68.73,4.03-.61,8.09-1.3,12.16-2.08Z"></path>
    <path class="cls-1" fill="#FFFFFF" d="M1172.5,1258.6c1.95,10.14,5.74,36.34,3.03,76.42-2.48,36.63-11.43,94.24-39.62,164.54,21.68-21.63,41.21-45.62,58.18-71.46,6.6-10.04,12.92-20.53,18.77-31.18l2.23,1.1-2.16-1.23c32.29-56.75,49.72-118.67,51.8-184.02,1.51-47.18-4.98-95.74-19.3-144.5-16.11,69.91-62.5,168.59-72.94,190.33Z"></path>
    <path class="cls-1" fill="#FFFFFF" d="M803.41,1028.1c20.76,28.28,49.08,66.85,75.27,110.6,8.9-4.2,25.28-11.12,46.46-16.51,15.89-4.04,36.21-7.58,58.64-7.58,19.07,0,39.67,2.55,60.4,9.51,48.94,16.42,88.55,53.44,117.81,110.06,7.43-16.08,19.81-43.61,31.82-73.61,25.35-63.3,38.2-109.88,37.2-134.77-24.13-62.52-61.12-124.29-107.34-179.36,5.89,19.76,11.82,42.4,17.03,65.04,9.3,40.45,24.65,117.73,23.02,180.8-.13,4.95-3.93,9.08-8.85,9.63-.36.04-.73.06-1.1.06-4.56,0-8.53-3.1-9.64-7.53-4.41-17.61-20.32-37.87-48.62-61.92-37.51-31.86-92.33-66.42-150.37-103.01-78.18-49.29-166.57-105-233.69-167.55.12,4.5.34,8.9.66,13.16,6.87,90.7,42.94,185.33,73.39,228.33,5.13,7.25,11.06,15.31,17.91,24.65Z"></path>
    <path class="cls-1" fill="#FFFFFF" d="M1152.59,1260.49c-27.54-61.62-66.1-101.15-114.61-117.47-40.41-13.6-80.75-8.41-107.48-1.67-5.91,1.49-11.83,3.23-17.69,5.18,8.58,1.94,17,4.28,25.15,6.99,44.1,14.67,77.38,39.59,96.25,72.07,31.35,53.97,24.37,127.75-20.74,219.29,9.58,13.01,40.42,51.3,90.14,79.32,37.72-81.31,49.13-147.95,52.03-189.69,2.95-42.4-1.9-68.57-3.05-74.01Z"></path>
    <path class="cls-1" fill="#FFFFFF" d="M1000.33,1460.56c-45.39,40.38-91.33,72.82-136.59,96.44-39.18,20.44-78.09,34.45-115.67,41.65-19.56,3.74-38.63,5.64-56.7,5.64-1.41.01-2.8-.01-4.2-.03,31.14,14.14,56.72,16.13,99.67,19.47l.26.02c4.4.34,8.95.7,13.69,1.08h.12c53.29,4.32,106.59-1.74,158.38-17.99,47.14-14.8,91.13-37.48,130.82-67.45-47.23-27.49-77.47-62.7-89.77-78.81Z"></path>
    <path class="cls-1" fill="#FFFFFF" d="M511.02,1283.43c8.67,9.24,25.51,25.56,50.54,42.82,30.17,20.81,79.93,47.99,147.38,61.01-15.22-23.29-22.76-52.91-22.44-88.14.36-39.34,10.21-80.91,19.81-116.41,3.68-19.36,5.77-39.3,6.23-59.35l-201.51,160.06Z"></path>
    <path class="cls-1" fill="#FFFFFF" d="M483.84,1286.42c-7.8-5-18.71-13.69-29.43-27.89-9.46-12.53-21.53-33.41-28.82-64.62-6.67,54.73-4.36,103.04,7.02,147.28,7.85,30.55,19.8,58.29,36.4,84.46-4.7-39.31-4.99-92.05,14.83-139.22Z"></path>
    <path class="cls-1" fill="#FFFFFF" d="M519.31,1318.78c19.23,36.35,55.33,68.64,83.53,90.11,36.74,27.97,72.57,47.55,84.73,53.92,17.81-14.52,26.52-34.04,33-53.32-78.55-12.24-136.18-43.23-170.84-67.23-10.76-7.45-20.95-15.31-30.43-23.47Z"></path>
    <path class="cls-1" fill="#FFFFFF" d="M469.9,1246.04c9.02,12.08,18.17,19.32,23.8,23.06,8.62-12.73,27.86-43.3,47.03-88.3,25.21-59.18,41.49-121.94,48.41-186.53,6.51-60.79,4.18-115.66-6.93-163.08-4-17.1-9.18-33.17-15.42-47.92-6.34,92.14-40.7,160.32-73.97,226.32-7.97,15.81-16.21,32.16-23.91,48.56v.47l-.42.42c-12.91,27.57-22.32,51.13-29.56,74.09.04,32.73,5.46,78.74,30.98,112.9Z"></path>
    <path class="cls-1" fill="#FFFFFF" d="M602.5,830.76c10.81,48.65,12.97,104.34,6.4,165.63-11.88,110.9-49.33,196.41-74.25,242.89l177.59-141.06c-1.71-38.51-9.37-76.55-22.16-110.1-24.06-52.51-56.05-105.68-87.58-157.35Z"></path>
    <path class="cls-1" fill="#FFFFFF" d="M824.05,1448.5c-.57,0-1.14.01-1.71.01-27.21,0-52.56-8.08-73.33-23.38-3.58-2.13-7.08-4.44-10.44-6.89-13.54,38.6-30.3,54.39-43.49,63.85-.12.09-.23.16-.33.23-17.05,11.2-42.84,16.87-76.65,16.87-6.32,0-12.92-.21-19.63-.61-25.11-1.52-53.29-6.02-80.29-12.77,15.01,14.76,31.91,29.06,51.42,43.54h0c.14.11.28.22.42.33,10.96,9.1,13.77,11.22,25.1,18.91.5.34.96.72,1.39,1.14,21,2.23,89.21,6.67,148.06-20.31,42.46-19.46,68.64-60.59,79.48-80.92Z"></path>
    <path class="cls-1" fill="#FFFFFF" d="M665.77,1473.6c-3.64-2.03-7.33-4.14-11.02-6.3-15.57-9.1-39.19-23.8-63.33-42.12-49.15-37.31-81.5-74.62-96.28-111.01-17.44,60.83-4.15,127.86-.4,144.26,70.05,22.76,137.13,24.83,171.03,15.17Z"></path>
  </g>
  <g>
    <path class="cls-1" fill="#FFFFFF" d="M5622.96,1242.25h-386c.37,75.87,63.17,129.92,135.98,121.47,35.7-4.14,65.48-17.93,85.22-48.97,6.64-10.44,14.12-16.03,27.31-15.79,40.75.72,81.52.26,125.7.26-2.99,11.01-4.12,19.87-7.68,27.6-39.78,86.36-107.52,135.76-201.5,147.02-41.65,4.99-83.81,3.45-124.59-9.71-88.98-28.7-146.08-88-170.98-178.04-16.75-60.58-16.26-121.64,2.43-181.21,33.86-107.91,110.89-165.71,221.4-178.05,116.72-13.03,241.42,38.29,283.4,171.52,14.26,45.26,14.66,91.29,9.31,143.89ZM5484.39,1148.14c-5.56-71.56-52.66-111.11-127.38-110.32-67.1.71-115.58,45.11-118.74,110.32h246.11Z"></path>
    <path class="cls-1" fill="#FFFFFF" d="M4185.7,1465.74h-133.67v-668.27h411.91v105.88h-276.19v170.98c33.91,2.3,68.63.79,103.22,1.06,34.85.27,69.71.06,106.42.06v106.08c-68.83,3.64-138.54-.63-211.69,2.55v281.66Z"></path>
    <path class="cls-1" fill="#FFFFFF" d="M5079.85,934.44v136.52h-197.77v394.36h-131.39c-6.74-22.89-8.98-483.45-2.16-529.7h130.91v101.05c2.76.54,5.52,1.09,8.28,1.63,3.11-10.82,6.09-21.68,9.36-32.45,12.84-42.36,40.97-67.75,85.31-70.98,31.32-2.28,62.95-.44,97.47-.44Z"></path>
    <path class="cls-1" fill="#FFFFFF" d="M4517.05,1465.17v-529.61h131.81v529.61h-131.81Z"></path>
    <path class="cls-1" fill="#FFFFFF" d="M4516.69,904.84c0-33.37-2.7-62.83.69-91.56,4.17-35.35,32.13-57.87,68.02-59.49,20.23-.91,40.54-.16,64.88-.16,0,34.41,1.6,66.89-.57,99.11-1.42,21.02-16.55,35.9-36.85,39.75-30.75,5.83-62.15,8.18-96.17,12.36Z"></path>
  </g>
  <g>
    <path class="cls-1" fill="#FFFFFF" d="M2094.07,916.22c-4.87,3.87-7.98,7.04-11.68,9.18-35.21,20.26-70.51,40.35-104.35,59.66-4.55-2.04-7.26-2.4-8.5-3.93-57.42-71.04-131.78-83.06-214.57-58.95-76,22.13-128.55,90.27-134.5,174.73-2.28,32.39-.98,66.16,5.67,97.84,25.01,119.23,130.27,168.52,232.26,154.97,79.13-10.52,129.42-55.16,153.23-130.54,1.95-6.18,1.92-12.99,3.17-22.2h-225.68c-4.33-34.25-2.94-66.31-.77-100.74h361.98c.26,16.62-.61,34.29,1,51.74,7.69,83.26-20.98,154-75.46,214.82-54.13,60.41-121.8,96.64-203.04,106.75-123.07,15.31-229.32-17.76-313.06-111.08-61.46-68.49-85.6-151.88-81.16-242.1,6.58-133.7,64.93-238.56,189.57-295.5,120.47-55.03,240.3-46.89,353.84,23.53,28.85,17.89,52.9,41.68,72.07,71.85Z"></path>
    <path class="cls-1" fill="#FFFFFF" d="M2844.62,996.55v-61.3h133.54v531.69c-43.39,1.41-86.78,1.06-134.22.04v-70.83c-9.45,7.86-13.85,10.74-17.31,14.5-87.88,95.42-265.51,88.9-350.62-32.94-68.11-97.5-70.56-247.61-5.81-347.39,79.39-122.36,257.53-140.65,354.97-41.85,3.82,3.87,8.07,7.3,12.13,10.94,2.44-.95,4.89-1.91,7.33-2.86ZM2845.62,1209.37c-3.3-23.88-4.33-40.98-8.18-57.43-13.53-57.86-62.48-101.19-118.62-106.29-64.4-5.84-118.33,23.67-142.49,81.92-23.48,56.62-20.85,113.32,12.15,166.06,26.63,42.56,67.07,65.03,116.92,63.57,53.62-1.58,96.48-26.5,119.54-76.17,11.18-24.09,15.09-51.56,20.66-71.65Z"></path>
    <path class="cls-1" fill="#FFFFFF" d="M3530.08,1299.83h127.51c14.6,18.85,24.15,38.24,39.59,49.7,35.73,26.52,76.51,25.12,116.34,9.01,17.81-7.2,28.21-22.02,28.27-42.71.06-21.23-11.38-34.37-29.9-40.86-31.99-11.21-64.52-20.91-96.81-31.28-27.99-8.98-56.74-16.14-83.76-27.42-51.84-21.65-85.71-58.95-89.75-117.43-4.03-58.45,20.4-103.69,68.68-135.44,53.58-35.23,113.72-42.92,176.14-36.57,16.78,1.71,33.61,5.39,49.79,10.27,78.18,23.57,121.8,77.69,130.23,162.02h-124.53c-29.2-59.14-74.87-80.06-131.48-60.76-19.81,6.76-33.95,18.12-36.41,40.12-2.35,20.99,6.78,37.99,30.8,47.52,29.35,11.63,60.08,19.78,90.2,29.46,27.99,8.99,56.78,16.1,83.77,27.44,53.92,22.66,89.56,60.56,93.02,122.42,3.55,63.37-24.6,109.27-78.22,140.17-85.11,49.06-219.51,39.33-296.31-21.39-38.79-30.66-64.06-69.48-67.2-124.27Z"></path>
    <path class="cls-1" fill="#FFFFFF" d="M3043.9,1300.09h132.86c2.82,5.82,6.22,12.69,9.5,19.62,12.06,25.47,32.88,41.41,59.64,45.77,20.89,3.4,42.91,1.8,64.2-.15,9.48-.87,19.4-6.67,27.35-12.6,28.67-21.39,26.81-59.11-5.42-74.71-25.25-12.22-52.99-19.44-79.86-28.13-35.5-11.48-72.24-19.77-106.62-33.9-46.32-19.03-80.46-51.68-87.57-104.21-8.77-64.76,14.97-115.88,70.43-150.63,53.13-33.29,112.17-40.9,173.37-34.28,42.31,4.58,82.11,16.81,115.74,44.42,39.8,32.67,60.72,74.56,63.62,128.06h-127.06c-5.56-25.17-18.95-47.12-44.64-57.75-25.75-10.65-52.52-12.87-79.76-4.38-26.76,8.34-40.42,21.8-41.46,43.21-1.16,23.86,12.47,38.76,33.01,46.36,28.59,10.59,58.01,18.96,87.08,28.27,27.99,8.96,56.78,16,83.82,27.25,55.21,22.96,91.72,61.43,94.48,124.87,2.82,64.92-26.1,113.17-83.15,140.15-95.82,45.31-191.67,41.05-281.72-16.55-45.88-29.35-73.06-72.83-77.83-130.69Z"></path>
    <path class="cls-1" fill="#FFFFFF" d="M2226,756.21h130.68v709.36h-130.68v-709.36Z"></path>
  </g>
</svg>