<?xml version="1.0" encoding="UTF-8"?>
<svg id="Layer_2" data-name="Layer 2" xmlns="http://www.w3.org/2000/svg" xmlns:xlink="http://www.w3.org/1999/xlink" viewBox="0 0 5206.36 1205.68">
  <defs>
    <style>
      .cls-1 {
        fill: url(#linear-gradient-13);
      }

      .cls-2 {
        fill: url(#linear-gradient-2);
      }

      .cls-3 {
        fill: url(#linear-gradient-10);
      }

      .cls-4 {
        fill: url(#linear-gradient-12);
      }

      .cls-5 {
        fill: url(#linear-gradient-4);
      }

      .cls-6 {
        fill: url(#linear-gradient-3);
      }

      .cls-7 {
        fill: url(#linear-gradient-5);
      }

      .cls-8 {
        fill: url(#linear-gradient-8);
      }

      .cls-9 {
        fill: url(#linear-gradient-14);
      }

      .cls-10 {
        fill: #ee2750;
      }

      .cls-11 {
        fill: url(#linear-gradient-7);
      }

      .cls-12 {
        fill: url(#linear-gradient-9);
      }

      .cls-13 {
        fill: url(#linear-gradient-11);
      }

      .cls-14 {
        fill: url(#linear-gradient-6);
      }

      .cls-15 {
        fill: #14a7e0;
      }

      .cls-16 {
        fill: url(#linear-gradient);
      }
    </style>
    <linearGradient id="linear-gradient" x1="469.95" y1="-189.82" x2="776.46" y2="1399.49" gradientUnits="userSpaceOnUse">
      <stop offset="0" stop-color="#ef404e"/>
      <stop offset=".36" stop-color="#ee3d4e"/>
      <stop offset=".51" stop-color="#ec3651"/>
      <stop offset=".63" stop-color="#e82a55"/>
      <stop offset=".73" stop-color="#e4185a"/>
      <stop offset=".73" stop-color="#e4185b"/>
      <stop offset=".79" stop-color="#e82459"/>
      <stop offset=".88" stop-color="#ec2d57"/>
      <stop offset="1" stop-color="#ee3157"/>
    </linearGradient>
    <linearGradient id="linear-gradient-2" x1="335.32" y1="-163.85" x2="641.82" y2="1425.45" gradientUnits="userSpaceOnUse">
      <stop offset="0" stop-color="#ef404e"/>
      <stop offset=".33" stop-color="#ee3d4f"/>
      <stop offset=".47" stop-color="#ed3656"/>
      <stop offset=".58" stop-color="#eb2a62"/>
      <stop offset=".67" stop-color="#e71872"/>
      <stop offset=".73" stop-color="#e50981"/>
      <stop offset=".77" stop-color="#e71574"/>
      <stop offset=".83" stop-color="#eb2463"/>
      <stop offset=".91" stop-color="#ed2e5a"/>
      <stop offset="1" stop-color="#ee3157"/>
    </linearGradient>
    <linearGradient id="linear-gradient-3" x1="240.51" y1="-145.57" x2="547.02" y2="1443.73" xlink:href="#linear-gradient-2"/>
    <linearGradient id="linear-gradient-4" x1="566.67" y1="-208.47" x2="873.18" y2="1380.83" xlink:href="#linear-gradient-2"/>
    <linearGradient id="linear-gradient-5" x1="423.91" y1="-180.94" x2="730.42" y2="1408.36" xlink:href="#linear-gradient-2"/>
    <linearGradient id="linear-gradient-6" x1="428.05" y1="-181.74" x2="734.56" y2="1407.57" xlink:href="#linear-gradient-2"/>
    <linearGradient id="linear-gradient-7" x1="220.42" y1="-141.69" x2="526.92" y2="1447.61" xlink:href="#linear-gradient-2"/>
    <linearGradient id="linear-gradient-8" x1="53.23" y1="374.02" x2="329.51" y2="1183.59" gradientUnits="userSpaceOnUse">
      <stop offset="0" stop-color="#00a8e4"/>
      <stop offset=".22" stop-color="#02a4e1"/>
      <stop offset=".39" stop-color="#0a9ada"/>
      <stop offset=".54" stop-color="#178acd"/>
      <stop offset=".69" stop-color="#2972bb"/>
      <stop offset=".8" stop-color="#3c5ba9"/>
      <stop offset=".84" stop-color="#385fac"/>
      <stop offset=".89" stop-color="#2d6db6"/>
      <stop offset=".94" stop-color="#1c83c8"/>
      <stop offset=".99" stop-color="#03a3e0"/>
      <stop offset="1" stop-color="#00a8e4"/>
    </linearGradient>
    <linearGradient id="linear-gradient-9" x1="-118.69" y1="432.69" x2="157.59" y2="1242.26" xlink:href="#linear-gradient-8"/>
    <linearGradient id="linear-gradient-10" x1="11.36" y1="388.31" x2="287.64" y2="1197.88" xlink:href="#linear-gradient-8"/>
    <linearGradient id="linear-gradient-11" x1="24.53" y1="383.82" x2="300.81" y2="1193.38" xlink:href="#linear-gradient-8"/>
    <linearGradient id="linear-gradient-12" x1="81.3" y1="364.44" x2="357.58" y2="1174.01" xlink:href="#linear-gradient-8"/>
    <linearGradient id="linear-gradient-13" x1="25.72" y1="383.41" x2="302" y2="1192.98" xlink:href="#linear-gradient-8"/>
    <linearGradient id="linear-gradient-14" x1="-55.4" y1="411.1" x2="220.88" y2="1220.66" xlink:href="#linear-gradient-8"/>
  </defs>
  <g>
    <path class="cls-16" d="M690.42,596.41c.42.4.8.85,1.15,1.32,13.59,11.68,24.35,22.45,32.68,32.7-3.59-52.1-14.89-106.91-21.52-135.78-13.01-56.62-27.17-98.89-32.55-108.13-8.7-8.9-17.67-17.62-26.68-25.91-59.51-51.57-114.85-116.33-155.83-182.35-28.91-46.57-49.96-92.46-62.72-136.67-.36,88.6,18.56,177.18,56.34,263.59,44.94,102.79,115.3,200.77,209.14,291.23Z"/>
    <path class="cls-2" d="M536.96,491.41c23.61,14.88,46.17,29.1,67.52,43.09-60.39-70.33-107.93-144.71-141.43-221.35-44.85-102.58-63.83-207.87-56.48-313.15-13.9,23.43-32.51,56.83-50.57,95.53-26.23,56.22-58.41,139.53-63.12,217.85,66.99,66.38,161.06,125.68,244.09,178.02Z"/>
    <path class="cls-6" d="M325.3,1158.58c35.71-6.84,72.84-20.22,110.34-39.79,46.13-24.07,93.06-57.66,139.48-99.84,43.58-86.94,51.4-155.65,23.22-204.24-20.65-35.61-57.66-54.02-85.07-63.19-15.19-5.08-29.22-7.99-39.51-9.62,25.15,45.5,42.81,88.72,52.49,128.51,9.26,38.08,5.42,80.59-11.13,122.93-14.16,36.23-37.19,71.22-64.86,98.52-30.59,30.18-76.7,53.31-137.14,68.81,4.03-.61,8.09-1.3,12.18-2.09Z"/>
    <path class="cls-5" d="M753.97,837.71c1.95,10.15,5.75,36.38,3.04,76.51-2.48,36.67-11.45,94.35-39.67,164.72,21.7-21.65,41.26-45.67,58.25-71.54,6.61-10.05,12.93-20.55,18.79-31.22l2.24,1.1-2.16-1.23c32.32-56.82,49.77-118.8,51.86-184.23,1.51-47.23-4.99-95.85-19.32-144.66-16.13,69.99-62.57,168.78-73.02,190.55Z"/>
    <path class="cls-7" d="M384.46,606.95c20.78,28.31,49.14,66.93,75.36,110.73,8.91-4.21,25.31-11.13,46.52-16.53,15.91-4.05,36.25-7.59,58.71-7.59,19.09,0,39.71,2.55,60.47,9.52,48.99,16.44,88.65,53.5,117.94,110.18,7.43-16.09,19.83-43.66,31.86-73.69,25.37-63.37,38.24-110,37.24-134.93-24.16-62.59-61.19-124.43-107.46-179.56,5.9,19.78,11.84,42.45,17.04,65.11,9.31,40.5,24.68,117.86,23.05,181-.13,4.95-3.94,9.09-8.86,9.64-.36.04-.73.06-1.1.06-4.57,0-8.54-3.1-9.65-7.53-4.42-17.63-20.34-37.91-48.68-61.99-37.55-31.9-92.44-66.49-150.54-103.12-78.27-49.34-166.76-105.12-233.96-167.74.12,4.5.34,8.91.66,13.17,6.87,90.8,42.98,185.54,73.47,228.59,5.14,7.25,11.07,15.33,17.93,24.68Z"/>
    <path class="cls-14" d="M734.03,839.59c-27.57-61.69-66.17-101.26-114.74-117.6-40.46-13.61-80.84-8.42-107.6-1.67-5.92,1.49-11.84,3.23-17.71,5.18,8.59,1.94,17.02,4.28,25.18,6.99,44.15,14.69,77.47,39.64,96.36,72.15,31.39,54.03,24.4,127.89-20.76,219.54,9.59,13.03,40.47,51.36,90.24,79.41,37.76-81.41,49.18-148.12,52.09-189.9,2.95-42.45-1.9-68.64-3.05-74.09Z"/>
    <path class="cls-11" d="M581.6,1039.89c-45.44,40.43-91.43,72.9-136.75,96.54-39.22,20.46-78.18,34.49-115.8,41.69-19.58,3.75-38.68,5.65-56.77,5.65-1.41.01-2.81-.01-4.2-.03,31.18,14.16,56.79,16.15,99.78,19.49l.26.02c4.4.34,8.96.7,13.71,1.08h.12c53.35,4.32,106.71-1.74,158.55-18.01,47.19-14.81,91.24-37.52,130.97-67.52-47.29-27.52-77.55-62.77-89.87-78.9Z"/>
    <path class="cls-8" d="M91.74,862.57c8.68,9.25,25.54,25.59,50.6,42.87,30.2,20.84,80.02,48.05,147.54,61.08-15.23-23.32-22.79-52.97-22.47-88.24.36-39.38,10.22-81.01,19.83-116.54,3.68-19.38,5.78-39.34,6.23-59.42l-201.74,160.25Z"/>
    <path class="cls-12" d="M64.53,865.55c-7.81-5.01-18.73-13.7-29.47-27.93-9.47-12.54-21.56-33.45-28.85-64.69-6.68,54.8-4.36,103.16,7.02,147.45,7.86,30.59,19.82,58.35,36.44,84.55-4.71-39.35-4.99-92.16,14.85-139.38Z"/>
    <path class="cls-3" d="M100.03,897.95c19.25,36.39,55.39,68.71,83.62,90.21,36.78,28,72.65,47.6,84.83,53.98,17.83-14.54,26.55-34.08,33.04-53.38-78.63-12.26-136.33-43.28-171.03-67.31-10.77-7.46-20.98-15.33-30.46-23.5Z"/>
    <path class="cls-13" d="M50.57,825.13c9.03,12.09,18.19,19.34,23.82,23.09,8.63-12.74,27.9-43.35,47.08-88.4,25.23-59.25,41.54-122.08,48.46-186.74,6.52-60.86,4.18-115.79-6.94-163.27-4.01-17.12-9.19-33.21-15.44-47.97-6.35,92.25-40.75,160.5-74.05,226.58-7.98,15.83-16.23,32.2-23.94,48.61v.47l-.42.42c-12.93,27.6-22.34,51.19-29.59,74.17.04,32.76,5.47,78.83,31.01,113.03Z"/>
    <path class="cls-4" d="M183.32,409.38c10.82,48.7,12.98,104.46,6.41,165.81-11.89,111.03-49.39,196.63-74.34,243.16l177.79-141.22c-1.72-38.55-9.38-76.64-22.19-110.23-24.09-52.57-56.11-105.8-87.68-157.53Z"/>
    <path class="cls-1" d="M405.12,1027.82c-.57,0-1.14.01-1.71.01-27.24,0-52.62-8.09-73.42-23.4-3.58-2.13-7.08-4.44-10.45-6.9-13.55,38.65-30.33,54.45-43.54,63.92-.12.09-.23.16-.34.23-17.07,11.21-42.89,16.89-76.74,16.89-6.32,0-12.94-.21-19.66-.62-25.13-1.53-53.35-6.03-80.38-12.79,15.03,14.77,31.95,29.09,51.48,43.58h0c.14.11.28.22.42.34,10.97,9.11,13.79,11.23,25.13,18.93.5.34.96.72,1.39,1.14,21.02,2.23,89.31,6.68,148.23-20.33,42.5-19.48,68.71-60.66,79.57-81.01Z"/>
    <path class="cls-9" d="M246.66,1052.95c-3.64-2.04-7.34-4.15-11.04-6.31-15.59-9.11-39.24-23.82-63.4-42.17-49.21-37.35-81.6-74.7-96.39-111.14-17.46,60.9-4.15,128.01-.4,144.43,70.13,22.79,137.28,24.85,171.22,15.19Z"/>
  </g>
  <g>
    <path class="cls-10" d="M5203.19,821.09h-386c.37,75.87,63.17,129.92,135.98,121.47,35.7-4.14,65.48-17.93,85.22-48.97,6.64-10.44,14.12-16.03,27.31-15.79,40.75.72,81.52.26,125.7.26-2.99,11.01-4.12,19.87-7.68,27.6-39.78,86.36-107.52,135.76-201.5,147.02-41.65,4.99-83.81,3.45-124.59-9.71-88.98-28.7-146.08-88-170.98-178.04-16.75-60.58-16.26-121.64,2.43-181.21,33.86-107.91,110.89-165.71,221.4-178.05,116.72-13.03,241.42,38.29,283.4,171.52,14.26,45.26,14.66,91.29,9.31,143.89ZM5064.62,726.98c-5.56-71.56-52.66-111.11-127.38-110.32-67.1.71-115.58,45.11-118.74,110.32h246.11Z"/>
    <path class="cls-10" d="M3765.93,1044.58h-133.67V376.31h411.91v105.88h-276.19v170.98c33.91,2.3,68.63.79,103.22,1.06,34.85.27,69.71.06,106.42.06v106.08c-68.83,3.64-138.54-.63-211.69,2.55v281.66Z"/>
    <path class="cls-10" d="M4660.08,513.28v136.52h-197.77v394.36h-131.39c-6.74-22.89-8.98-483.45-2.16-529.7h130.91v101.05c2.76.54,5.52,1.09,8.28,1.63,3.11-10.82,6.09-21.68,9.36-32.45,12.84-42.36,40.97-67.75,85.31-70.98,31.32-2.28,62.95-.44,97.47-.44Z"/>
    <path class="cls-10" d="M4097.28,1044.01v-529.61h131.81v529.61h-131.81Z"/>
    <path class="cls-10" d="M4096.92,483.68c0-33.37-2.7-62.83.69-91.56,4.17-35.35,32.13-57.87,68.02-59.49,20.23-.91,40.54-.16,64.88-.16,0,34.41,1.6,66.89-.57,99.11-1.42,21.02-16.55,35.9-36.85,39.75-30.75,5.83-62.15,8.18-96.17,12.36Z"/>
  </g>
  <g>
    <path class="cls-15" d="M1674.3,495.07c-4.87,3.87-7.98,7.04-11.68,9.18-35.21,20.26-70.51,40.35-104.35,59.66-4.55-2.04-7.26-2.4-8.5-3.93-57.42-71.04-131.78-83.06-214.57-58.95-76,22.13-128.55,90.27-134.5,174.73-2.28,32.39-.98,66.16,5.67,97.84,25.01,119.23,130.27,168.52,232.26,154.97,79.13-10.52,129.42-55.16,153.23-130.54,1.95-6.18,1.92-12.99,3.17-22.2h-225.68c-4.33-34.25-2.94-66.31-.77-100.74h361.98c.26,16.62-.61,34.29,1,51.74,7.69,83.26-20.98,154-75.46,214.82-54.13,60.41-121.8,96.64-203.04,106.75-123.07,15.31-229.32-17.76-313.06-111.08-61.46-68.49-85.6-151.88-81.16-242.1,6.58-133.7,64.93-238.56,189.57-295.5,120.47-55.03,240.3-46.89,353.84,23.53,28.85,17.89,52.9,41.68,72.07,71.85Z"/>
    <path class="cls-15" d="M2424.86,575.39v-61.3h133.54v531.69c-43.39,1.41-86.78,1.06-134.22.04v-70.83c-9.45,7.86-13.85,10.74-17.31,14.5-87.88,95.42-265.51,88.9-350.62-32.94-68.11-97.5-70.56-247.61-5.81-347.39,79.39-122.36,257.53-140.65,354.97-41.85,3.82,3.87,8.07,7.3,12.13,10.94,2.44-.95,4.89-1.91,7.33-2.86ZM2425.85,788.21c-3.3-23.88-4.33-40.98-8.18-57.43-13.53-57.86-62.48-101.19-118.62-106.29-64.4-5.84-118.33,23.67-142.49,81.92-23.48,56.62-20.85,113.32,12.15,166.06,26.63,42.56,67.07,65.03,116.92,63.57,53.62-1.58,96.48-26.5,119.54-76.17,11.18-24.09,15.09-51.56,20.66-71.65Z"/>
    <path class="cls-15" d="M3110.32,878.67h127.51c14.6,18.85,24.15,38.24,39.59,49.7,35.73,26.52,76.51,25.12,116.34,9.01,17.81-7.2,28.21-22.02,28.27-42.71.06-21.23-11.38-34.37-29.9-40.86-31.99-11.21-64.52-20.91-96.81-31.28-27.99-8.98-56.74-16.14-83.76-27.42-51.84-21.65-85.71-58.95-89.75-117.43-4.03-58.45,20.4-103.69,68.68-135.44,53.58-35.23,113.72-42.92,176.14-36.57,16.78,1.71,33.61,5.39,49.79,10.27,78.18,23.57,121.8,77.69,130.23,162.02h-124.53c-29.2-59.14-74.87-80.06-131.48-60.76-19.81,6.76-33.95,18.12-36.41,40.12-2.35,20.99,6.78,37.99,30.8,47.52,29.35,11.63,60.08,19.78,90.2,29.46,27.99,8.99,56.78,16.1,83.77,27.44,53.92,22.66,89.56,60.56,93.02,122.42,3.55,63.37-24.6,109.27-78.22,140.17-85.11,49.06-219.51,39.33-296.31-21.39-38.79-30.66-64.06-69.48-67.2-124.27Z"/>
    <path class="cls-15" d="M2624.13,878.93h132.86c2.82,5.82,6.22,12.69,9.5,19.62,12.06,25.47,32.88,41.41,59.64,45.77,20.89,3.4,42.91,1.8,64.2-.15,9.48-.87,19.4-6.67,27.35-12.6,28.67-21.39,26.81-59.11-5.42-74.71-25.25-12.22-52.99-19.44-79.86-28.13-35.5-11.48-72.24-19.77-106.62-33.9-46.32-19.03-80.46-51.68-87.57-104.21-8.77-64.76,14.97-115.88,70.43-150.63,53.13-33.29,112.17-40.9,173.37-34.28,42.31,4.58,82.11,16.81,115.74,44.42,39.8,32.67,60.72,74.56,63.62,128.06h-127.06c-5.56-25.17-18.95-47.12-44.64-57.75-25.75-10.65-52.52-12.87-79.76-4.38-26.76,8.34-40.42,21.8-41.46,43.21-1.16,23.86,12.47,38.76,33.01,46.36,28.59,10.59,58.01,18.96,87.08,28.27,27.99,8.96,56.78,16,83.82,27.25,55.21,22.96,91.72,61.43,94.48,124.87,2.82,64.92-26.1,113.17-83.15,140.15-95.82,45.31-191.67,41.05-281.72-16.55-45.88-29.35-73.06-72.83-77.83-130.69Z"/>
    <path class="cls-15" d="M1806.23,335.05h130.68v709.36h-130.68V335.05Z"/>
  </g>
</svg>